<svg xmlns="http://www.w3.org/2000/svg" width="143.955" height="143.955" viewBox="0 0 143.955 143.955">
  <g id="Grupo_231" data-name="Grupo 231" transform="translate(-1242.453 -2193.981)">
    <path id="Trazado_273" data-name="Trazado 273" d="M1260.492,2319.852h40.117a17.927,17.927,0,0,0,9.6-2.781v2.826a18.06,18.06,0,0,0,18.04,18.039h40.116a18.059,18.059,0,0,0,18.039-18.039v-93.328a14.5,14.5,0,0,0-14.5-14.5c-50.526,0-47.378-.009-47.917.018a14.4,14.4,0,0,0-5.341,1.307v-4.908a14.494,14.494,0,0,0-14.5-14.5h-47.19a14.5,14.5,0,0,0-14.5,14.5v93.327a18.061,18.061,0,0,0,18.039,18.042Zm40.117-8.435h-40.117a9.616,9.616,0,0,1-9.6-9.607v-92.731l2.413,2.774a21.791,21.791,0,0,0,16.443,7.488h21.613a21.789,21.789,0,0,0,16.442-7.488l2.414-2.774v62.374h-13.355a4.217,4.217,0,0,0-4.217,4.217v16.87a4.217,4.217,0,0,0,4.217,4.217h13.355v5.053A9.616,9.616,0,0,1,1300.609,2311.417Zm30.059-23.094h-29.592v-8.435h29.592a4.219,4.219,0,0,0,4.218-4.218v-4.4l16.008,12.838-16.008,12.839v-4.4A4.218,4.218,0,0,0,1330.668,2288.323Zm47.306,31.574a9.615,9.615,0,0,1-9.6,9.6h-40.116a9.615,9.615,0,0,1-9.605-9.6v-23.14h7.8v8.975a4.221,4.221,0,0,0,6.856,3.29l26.966-21.627a4.219,4.219,0,0,0,0-6.58l-26.966-21.627a4.221,4.221,0,0,0-6.856,3.29v8.975h-7.8v-44.288l2.414,2.773a21.787,21.787,0,0,0,16.442,7.488h21.613a21.788,21.788,0,0,0,16.443-7.488l2.413-2.774V2319.9Zm-5.415-99.359-3.362,3.863a13.357,13.357,0,0,1-10.08,4.59H1337.5a13.359,13.359,0,0,1-10.08-4.59l-3.361-3.863C1324.57,2220.484,1371.96,2220.474,1372.559,2220.538Zm-67.761-18.086-3.361,3.863a13.357,13.357,0,0,1-10.08,4.591h-21.613a13.356,13.356,0,0,1-10.08-4.591l-3.361-3.863C1256.877,2202.391,1304.278,2202.4,1304.8,2202.452Z" fill="#21323f"/>
    <path id="Trazado_274" data-name="Trazado 274" d="M1276.936,2227.776h-9.922a7.7,7.7,0,0,0-7.691,7.691v9.922a7.7,7.7,0,0,0,7.691,7.691h9.922a7.7,7.7,0,0,0,7.691-7.691v-9.922A7.7,7.7,0,0,0,1276.936,2227.776Zm-.743,16.87h-8.435v-8.435h8.435Z" fill="#542fc2"/>
    <path id="Trazado_275" data-name="Trazado 275" d="M1276.936,2261.515h-9.922a7.7,7.7,0,0,0-7.691,7.692v9.922a7.7,7.7,0,0,0,7.691,7.691h9.922a7.7,7.7,0,0,0,7.691-7.691v-9.922A7.7,7.7,0,0,0,1276.936,2261.515Zm-.743,16.87h-8.435v-8.435h8.435Z" fill="#542fc2"/>
  </g>
</svg>
