<?xml version="1.0" encoding="UTF-8"?>
<svg id="Capa_1" xmlns="http://www.w3.org/2000/svg" xmlns:xlink="http://www.w3.org/1999/xlink" viewBox="0 0 1920 1193.68">
  <defs>
    <style>
      .cls-1 {
        fill: url(#Degradado_sin_nombre_5);
      }

      .cls-2 {
        fill: #0caafd;
      }
    </style>
    <linearGradient id="Degradado_sin_nombre_5" data-name="Degradado sin nombre 5" x1="-404.8" y1="-2567.3" x2="1616.2" y2="-2567.3" gradientTransform="translate(-89.59 -1819.17) rotate(-9.75) scale(1.03 -1.04)" gradientUnits="userSpaceOnUse">
      <stop offset="0" stop-color="#fff"/>
      <stop offset="1" stop-color="#0caafd"/>
    </linearGradient>
  </defs>
  <path class="cls-1" d="M1920,76c-167.68,99.8-382.27,196.94-637.34,274.97C771.15,507.43,0,446.38,0,446.38c0,0,1,81.62,0,237.62v472c331.03,45.45,821.46,79.61,1394.7-82.5,254.96-72.1,339.3-107.5,525.3-220.5V76Z"/>
  <path class="cls-2" d="M1920,76V0s-162.99,97.29-228.18,127.05c-108.64,49.6-245.82,110.95-396.96,160C782.51,453.33,0,382.82,0,382.82,0,382.82,0,452,0,546v577c336.73,48.22,828.98,79.02,1411.25-86.97,258.98-73.83,327.84-121.77,508.75-218.03V76Z"/>
</svg>