<svg xmlns="http://www.w3.org/2000/svg" width="173.462" height="125.143" viewBox="0 0 173.462 125.143">
  <g id="Grupo_226" data-name="Grupo 226" transform="translate(-436.583 -1218)">
    <path id="Trazado_255" data-name="Trazado 255" d="M513.446,1257.972l-14.88-2.162-6.655-13.484a5.086,5.086,0,0,0-9.114,0l-6.655,13.484-14.88,2.162a5.086,5.086,0,0,0-2.816,8.668l10.767,10.495-2.541,14.821a5.086,5.086,0,0,0,7.373,5.357l13.309-7,13.309,7a5.086,5.086,0,0,0,7.374-5.357l-2.542-14.821,10.768-10.495a5.086,5.086,0,0,0-2.817-8.668Zm-16.959,13.75a5.081,5.081,0,0,0-1.461,4.5l1.252,7.305-6.559-3.449a5.084,5.084,0,0,0-4.73,0l-6.56,3.449,1.253-7.305a5.083,5.083,0,0,0-1.461-4.5l-5.307-5.173,7.334-1.066a5.081,5.081,0,0,0,3.826-2.779l3.28-6.646,3.28,6.646a5.081,5.081,0,0,0,3.826,2.779l7.334,1.066Z" fill="#542fc2"/>
    <path id="Trazado_256" data-name="Trazado 256" d="M585.367,1257.972l-14.88-2.162-6.654-13.484a5.086,5.086,0,0,0-9.115,0l-6.654,13.484-14.88,2.162a5.086,5.086,0,0,0-2.817,8.668l10.768,10.495-2.542,14.82a5.086,5.086,0,0,0,7.373,5.358l13.309-7,13.31,7a5.085,5.085,0,0,0,7.373-5.358l-2.541-14.82,10.767-10.495a5.086,5.086,0,0,0-2.817-8.668Zm-16.958,13.75a5.084,5.084,0,0,0-1.462,4.5l1.253,7.305-6.56-3.449a5.078,5.078,0,0,0-4.729,0l-6.56,3.449,1.253-7.305a5.084,5.084,0,0,0-1.462-4.5l-5.307-5.173,7.334-1.066A5.082,5.082,0,0,0,556,1262.7l3.279-6.646,3.28,6.646a5.084,5.084,0,0,0,3.827,2.779l7.333,1.066Z" fill="#542fc2"/>
    <path id="Trazado_257" data-name="Trazado 257" d="M586.012,1218h-125.4a24.063,24.063,0,0,0-24.034,24.037v52.151a24.063,24.063,0,0,0,24.034,24.037h77.738l16.408,22.805a5.082,5.082,0,0,0,8.233.023l16.62-22.828h6.395a24.062,24.062,0,0,0,24.034-24.037v-52.151A24.061,24.061,0,0,0,586.012,1218Zm13.87,76.188a13.888,13.888,0,0,1-13.87,13.874H577.03a5.082,5.082,0,0,0-4.108,2.09l-14.01,19.242-13.828-19.219a5.081,5.081,0,0,0-4.125-2.113H460.617a13.888,13.888,0,0,1-13.87-13.874v-52.151a13.887,13.887,0,0,1,13.87-13.873h125.4a13.887,13.887,0,0,1,13.87,13.873Z" fill="#21323f"/>
  </g>
</svg>
