<svg xmlns="http://www.w3.org/2000/svg" width="146.727" height="123.708" viewBox="0 0 146.727 123.708">
  <g id="Grupo_228" data-name="Grupo 228" transform="translate(-449.951 -2193.981)">
    <path id="Trazado_260" data-name="Trazado 260" d="M584.817,2193.981H461.812a11.874,11.874,0,0,0-11.861,11.86v99.987a11.875,11.875,0,0,0,11.861,11.861H584.817a11.875,11.875,0,0,0,11.861-11.861v-99.987a11.874,11.874,0,0,0-11.861-11.86Zm-123.005,8.6H584.817a3.267,3.267,0,0,1,3.263,3.264v22.528H458.548v-22.529A3.267,3.267,0,0,1,461.812,2202.578Zm123.005,106.514H461.812a3.268,3.268,0,0,1-3.264-3.264v-68.861H588.08v68.861A3.267,3.267,0,0,1,584.817,2309.092Z" fill="#21323f"/>
    <circle id="Elipse_65" data-name="Elipse 65" cx="4.299" cy="4.299" r="4.299" transform="translate(467.146 2211.175)" fill="#21323f"/>
    <circle id="Elipse_66" data-name="Elipse 66" cx="4.299" cy="4.299" r="4.299" transform="translate(484.34 2211.175)" fill="#21323f"/>
    <circle id="Elipse_67" data-name="Elipse 67" cx="4.299" cy="4.299" r="4.299" transform="translate(570.886 2211.175)" fill="#21323f"/>
    <path id="Trazado_261" data-name="Trazado 261" d="M575.8,2263.3l-14.6-2.122-6.53-13.23a4.3,4.3,0,0,0-7.709,0l-6.53,13.23-14.6,2.122a4.3,4.3,0,0,0-2.382,7.332l10.565,10.3-2.494,14.542a4.3,4.3,0,0,0,6.237,4.531l13.059-6.865,13.06,6.865a4.3,4.3,0,0,0,6.237-4.531l-2.494-14.542,10.565-10.3a4.3,4.3,0,0,0-2.383-7.332ZM560,2276.356a4.3,4.3,0,0,0-1.236,3.8l1.4,8.184-7.35-3.864a4.3,4.3,0,0,0-4,0l-7.35,3.864,1.4-8.184a4.3,4.3,0,0,0-1.237-3.8l-5.946-5.8,8.217-1.194a4.3,4.3,0,0,0,3.237-2.352l3.675-7.446,3.675,7.446a4.3,4.3,0,0,0,3.237,2.352l8.217,1.194Z" fill="#542fc2"/>
    <path id="Trazado_262" data-name="Trazado 262" d="M471.444,2260.134h32.741a4.3,4.3,0,0,0,0-8.6H471.444a4.3,4.3,0,0,0,0,8.6Z" fill="#21323f"/>
    <path id="Trazado_263" data-name="Trazado 263" d="M471.444,2277.328h21.207a4.3,4.3,0,0,0,0-8.6H471.444a4.3,4.3,0,0,0,0,8.6Z" fill="#21323f"/>
    <path id="Trazado_264" data-name="Trazado 264" d="M509.916,2285.925H471.444a4.3,4.3,0,0,0,0,8.6h38.472a4.3,4.3,0,1,0,0-8.6Z" fill="#21323f"/>
  </g>
</svg>
