<svg xmlns="http://www.w3.org/2000/svg" width="1923.578" height="1046.477" viewBox="0 0 1923.578 1046.477">
  <g id="Grupo_240" data-name="Grupo 240" transform="translate(1.578 -501.906)">
    <path id="Trazado_297" data-name="Trazado 297" d="M3,1459c228.832-67.934,546.709-136.733,941.478-138.368a3387.056,3387.056,0,0,1,977.522,140v-558c-248.566-94.691-450.834-110.328-589.918-107-355.876,8.515-534.663,146.851-949.478,147C217.374,942.691,87.3,922.17,0,904,0,1090,2,1269,3,1459Z" transform="translate(-1 87.751)" fill="#ff3365" opacity="0.5"/>
    <path id="Trazado_250" data-name="Trazado 250" d="M3,1459c228.832-67.934,546.709-136.733,941.478-138.368a3387.056,3387.056,0,0,1,977.522,140v-558c-248.566-94.691-450.834-110.328-589.918-107-355.876,8.515-534.663,146.851-949.478,147C217.374,942.691,87.3,922.17,0,904,0,1090,2,1269,3,1459Z" fill="#ff3365" opacity="0.5"/>
    <path id="Trazado_251" data-name="Trazado 251" d="M-1.106,1117.361a3537.986,3537.986,0,0,1,975.7-104.949c417.485,13.344,710.654,68.872,946.4,146.588V606c-250.7-103.782-388.944-102.181-531.252-103.976-364.123-4.594-551.879,127.069-975.957,111.944C244.872,607.944,87.6,573.592-1,552.22-3,747.22,1,929.22-1.106,1117.361Z" fill="#ff3365"/>
  </g>
</svg>
