<svg xmlns="http://www.w3.org/2000/svg" width="140.281" height="140.28" viewBox="0 0 140.281 140.28">
  <g id="Grupo_227" data-name="Grupo 227" transform="translate(-453.174 -1674.637)">
    <path id="Trazado_258" data-name="Trazado 258" d="M531.415,1690.269a46.6,46.6,0,1,0,46.455,46.595A46.578,46.578,0,0,0,531.415,1690.269Zm0,8.245a38.354,38.354,0,0,1,29.552,62.657,28.459,28.459,0,0,0-17.574-9.78v-3.923a19.708,19.708,0,0,0,7.537-15.45v-6.542a19.516,19.516,0,1,0-39.031,0v6.542a19.708,19.708,0,0,0,7.538,15.451v3.923a28.459,28.459,0,0,0-17.575,9.779,38.355,38.355,0,0,1,29.553-62.657Zm3.758,52.712v3.983a3.757,3.757,0,1,1-7.515.009v-3.992a19.475,19.475,0,0,0,7.516,0Zm7.537-19.208a11.252,11.252,0,0,1-5.516,9.736l-.015.008a11.279,11.279,0,0,1-11.528,0l-.018-.01a11.249,11.249,0,0,1-5.514-9.734v-6.542a11.3,11.3,0,1,1,22.591,0Zm-34.96,34.948a20.241,20.241,0,0,1,12.521-7.363,11.96,11.96,0,0,0,22.289,0,20.235,20.235,0,0,1,12.519,7.363,38.068,38.068,0,0,1-47.329,0Z" fill="#542fc2"/>
    <path id="Trazado_259" data-name="Trazado 259" d="M531.415,1674.637a62.3,62.3,0,0,0-54.566,91.891l-18.6,18.652a17.476,17.476,0,0,0,0,24.635,17.329,17.329,0,0,0,24.56,0l18.47-18.527a62.181,62.181,0,1,0,30.132-116.651ZM477,1803.985a9.16,9.16,0,0,1-12.935-12.974l17.3-17.355a63.027,63.027,0,0,0,12.872,13.038Zm54.415-13.137a53.983,53.983,0,1,1,53.82-53.984A53.945,53.945,0,0,1,531.415,1790.848Z" fill="#21323f"/>
  </g>
</svg>
