<svg xmlns="http://www.w3.org/2000/svg" width="140" height="140" viewBox="0 0 140 140">
  <g id="Grupo_229" data-name="Grupo 229" transform="translate(-1244.431 -1218)">
    <path id="Trazado_265" data-name="Trazado 265" d="M1351.618,1218h-74.375a32.813,32.813,0,0,0,0,65.625h74.375a32.813,32.813,0,1,0,0-65.625Zm0,57.422h-74.375a24.609,24.609,0,0,1,0-49.219h74.375a24.609,24.609,0,1,1,0,49.219Z" fill="#21323f"/>
    <path id="Trazado_266" data-name="Trazado 266" d="M1361.189,1246.711H1293.13a16.406,16.406,0,1,0,0,8.2h68.059a4.1,4.1,0,0,0,0-8.2Zm-83.946,12.3a8.2,8.2,0,1,1,8.2-8.2A8.212,8.212,0,0,1,1277.243,1259.016Z" fill="#542fc2"/>
    <path id="Trazado_267" data-name="Trazado 267" d="M1351.618,1292.375h-74.375a32.813,32.813,0,0,0,0,65.625h74.375a32.813,32.813,0,1,0,0-65.625Zm0,57.422h-74.375a24.609,24.609,0,0,1,0-49.219h74.375a24.609,24.609,0,1,1,0,49.219Z" fill="#21323f"/>
    <path id="Trazado_268" data-name="Trazado 268" d="M1361.189,1321.086h-30.871a16.408,16.408,0,0,0-31.774,0H1267.73a4.1,4.1,0,0,0,0,8.2h30.814a16.408,16.408,0,0,0,31.774,0h30.871a4.1,4.1,0,0,0,0-8.2Zm-46.758,12.3a8.2,8.2,0,1,1,8.2-8.2A8.212,8.212,0,0,1,1314.431,1333.391Z" fill="#542fc2"/>
  </g>
</svg>
