<svg xmlns="http://www.w3.org/2000/svg" width="630.74" height="630.74" viewBox="0 0 630.74 630.74">
  <g id="Grupo_241" data-name="Grupo 241" transform="translate(-1121.316 -152.244)">
    <circle id="Elipse_64" data-name="Elipse 64" cx="241.5" cy="241.5" r="241.5" transform="translate(1195 228)" fill="#fff" stroke="#ff3365" stroke-miterlimit="10" stroke-width="8"/>
    <circle id="Elipse_68" data-name="Elipse 68" cx="223" cy="223" r="223" transform="translate(1121.316 467.614) rotate(-45)" fill="#0caafd"/>
    <rect id="Rectángulo_106" data-name="Rectángulo 106" width="177.05" height="263.228" rx="12" transform="translate(1321.474 295)" fill="#555f91"/>
    <path id="Trazado_276" data-name="Trazado 276" d="M1380.321,518.744a13.932,13.932,0,0,1-13.892-13.891V336.129a13.932,13.932,0,0,1,13.892-13.892h225.46A224.461,224.461,0,0,0,1577.87,295h-212a22.682,22.682,0,0,0-22.615,22.615v218a22.681,22.681,0,0,0,22.615,22.614h274.621a221.272,221.272,0,0,0,13.294-39.484Z" fill="#e4f8f6"/>
    <path id="Trazado_277" data-name="Trazado 277" d="M1366.429,336.129V504.853a13.932,13.932,0,0,0,13.892,13.891h273.467a223.363,223.363,0,0,0-48.007-196.507h-225.46A13.932,13.932,0,0,0,1366.429,336.129Z" fill="#21323f"/>
    <rect id="Rectángulo_107" data-name="Rectángulo 107" width="98.181" height="47.688" transform="translate(1474.333 558.229)" fill="#555f91"/>
    <rect id="Rectángulo_108" data-name="Rectángulo 108" width="98.181" height="47.688" transform="translate(1496.346 558.229)" fill="#779cb2"/>
    <g id="Grupo_232" data-name="Grupo 232">
      <path id="Trazado_278" data-name="Trazado 278" d="M1542.792,294.088l-20.529,28.149h59.126Z" fill="#467bbc"/>
      <path id="Trazado_279" data-name="Trazado 279" d="M1605.781,322.237h-6.923l16.647,12.141Q1610.848,328.139,1605.781,322.237Z" fill="#467bbc"/>
      <path id="Trazado_280" data-name="Trazado 280" d="M1598.858,322.237l-50-36.465-6.065,8.317,38.6,28.149Z" fill="#467bbc"/>
      <path id="Trazado_281" data-name="Trazado 281" d="M1626.637,350.764q-5.21-8.448-11.132-16.386l-16.647-12.141h-76.6l-40.774,55.908a10.679,10.679,0,0,0,2.335,14.921l64.458,47.01a11.089,11.089,0,0,0,14.921-2.335l61.3-84.057,6.751,4.923Q1629.026,354.634,1626.637,350.764Z" fill="#38285f"/>
    </g>
    <path id="Trazado_282" data-name="Trazado 282" d="M1531.43,362.382h-165v79.78h50.486a8.2,8.2,0,0,1,8.2,8.2v22.263a10.855,10.855,0,0,0,9.513,10.952,10.551,10.551,0,0,0,11.585-10.5V450.358a8.2,8.2,0,0,1,8.2-8.2h0a8.2,8.2,0,0,1,8.2,8.212c-.043,24.639-.058,44.556-.058,44.556a11.307,11.307,0,0,0,11.307,11.308h0a11.308,11.308,0,0,0,11.308-11.308s-.016-29.733-.044-44.562a8.192,8.192,0,0,1,8.2-8.206h38.121Z" fill="#ffce23"/>
    <path id="Rectángulo_109" data-name="Rectángulo 109" d="M5.667,0H125.01a0,0,0,0,1,0,0V101.139a0,0,0,0,1,0,0H5.667A5.667,5.667,0,0,1,0,95.472V5.667A5.667,5.667,0,0,1,5.667,0Z" transform="translate(1451.981 386.773) rotate(-53.896)" fill="#616a8b"/>
    <path id="Trazado_283" data-name="Trazado 283" d="M1546.633,402.945a6.2,6.2,0,0,0-8.932,1.153l-8.375,11.483a6.91,6.91,0,0,1-11.166-8.143l13.053-17.9a9.106,9.106,0,0,0-2.739-13.211,9.367,9.367,0,0,0-12.2,2.8l-12.821,17.58a6.91,6.91,0,0,1-9.655,1.511l-5.467-3.988a6.909,6.909,0,0,1-1.511-9.654l3.728-5.112a8.321,8.321,0,0,0-.945-11.082,8.089,8.089,0,0,0-11.92,1.27l-8,10.975-9.069,12.435h0l64.458,47.01a10.567,10.567,0,0,0,1.226.718l21.225-29.1A6.441,6.441,0,0,0,1546.633,402.945Z" fill="#e3a21c"/>
    <path id="Trazado_284" data-name="Trazado 284" d="M1277.7,620.242h50.485l-24.971-84.479h-43.027a16.43,16.43,0,0,0-15.757,21.088Z" fill="#55578c"/>
    <path id="Trazado_285" data-name="Trazado 285" d="M1309.732,650.955H1563.64a224.253,224.253,0,0,0,35.613-30.713H1274.119A224.253,224.253,0,0,0,1309.732,650.955Z" fill="#ff895f"/>
    <path id="Trazado_286" data-name="Trazado 286" d="M1571.182,585.267H1464.537a34.975,34.975,0,0,0-34.974,34.975H1579.9a224.273,224.273,0,0,0,18.312-22.193A34.9,34.9,0,0,0,1571.182,585.267Z" fill="#555f91"/>
    <path id="Trazado_287" data-name="Trazado 287" d="M1436.686,690.614a221.961,221.961,0,0,0,126.954-39.659H1309.732A221.961,221.961,0,0,0,1436.686,690.614Z" fill="#c14530"/>
    <path id="Trazado_288" data-name="Trazado 288" d="M1590.536,585.267H1483.892a34.975,34.975,0,0,0-34.975,34.975h150.336a224.118,224.118,0,0,0,18.312-22.193A34.9,34.9,0,0,0,1590.536,585.267Z" fill="#e4f8f6"/>
    <path id="Trazado_289" data-name="Trazado 289" d="M1256.823,556.344a20.514,20.514,0,1,1,0,41.028c-.529,0-1.048-.04-1.567-.08a224.091,224.091,0,0,0,18.863,22.95h3.578l24.971-84.479h-56.6a11.27,11.27,0,0,0-10.807,8.075l-3.5,11.841q2.882,6.7,6.173,13.163A20.518,20.518,0,0,1,1256.823,556.344Z" fill="#fff"/>
    <path id="Trazado_290" data-name="Trazado 290" d="M1277.337,576.858a20.516,20.516,0,0,0-39.4-8.016,222.929,222.929,0,0,0,17.32,28.45c.519.04,1.038.08,1.567.08A20.515,20.515,0,0,0,1277.337,576.858Z" fill="#eae7e5"/>
    <g id="Grupo_233" data-name="Grupo 233">
      <path id="Trazado_291" data-name="Trazado 291" d="M1264.505,581.406h-13.663V568.272h5.654v7.481h8.009Z" fill="#baaeaa"/>
    </g>
    <g id="Grupo_235" data-name="Grupo 235">
      <g id="Grupo_234" data-name="Grupo 234">
        <path id="Trazado_292" data-name="Trazado 292" d="M1633.515,226.144a21.561,21.561,0,0,0-34.037,20.59l-29.95,41.066-19.719-14.381a22.928,22.928,0,0,0-32.034,5.014l-6.827,9.362,99.192,72.342,6.827-9.362c7.462-10.23,4.387-22.607-4.466-31.619,0,0-4.682-4.469-6.384-5.711l-11.262-8.213,29.455-40.388a21.561,21.561,0,0,0,9.2-38.7Z" fill="#ff3365"/>
        <path id="Trazado_293" data-name="Trazado 293" d="M1612.128,318.761l-3.084-2.819c6.928,7.382,8.306,21.009,2.086,29.536l-7.5,9.912,6.509,4.747,6.827-9.362C1624.429,340.545,1622.294,327.566,1612.128,318.761Z" fill="#ff3365"/>
      </g>
    </g>
    <g id="Grupo_236" data-name="Grupo 236">
      <path id="Trazado_294" data-name="Trazado 294" d="M1633.515,226.144c-.44-.321-.9-.6-1.35-.884a21.556,21.556,0,0,1-13.692,34.287l-29.95,41.067,6.332,4.618,29.455-40.388a21.561,21.561,0,0,0,9.2-38.7Z" fill="#c40c30"/>
    </g>
  </g>
</svg>
