<?xml version="1.0" encoding="UTF-8"?>
<svg id="Capa_2" data-name="Capa 2" xmlns="http://www.w3.org/2000/svg" viewBox="0 0 425.59 257.42">
  <defs>
    <style>
      .cls-1 {
        fill: #45a1da;
      }

      .cls-1, .cls-2, .cls-3, .cls-4 {
        stroke-width: 0px;
      }

      .cls-2 {
        fill: #4a4293;
      }

      .cls-3 {
        fill: #e73b67;
      }

      .cls-4 {
        fill: #060c11;
      }
    </style>
  </defs>
  <g id="Capa_1-2" data-name="Capa 1">
    <path class="cls-4" d="M140.4,42.99h251.62v146.62c0,6.86-1.71,13.15-5.13,18.87-3.42,5.72-7.97,10.29-13.67,13.73-5.7,3.43-11.96,5.15-18.79,5.15h-105c-6.83,0-13.1-1.72-18.79-5.15-5.7-3.43-10.25-8.01-13.67-13.73-3.42-5.72-5.13-12.01-5.13-18.87v-121.04h-71.45v-25.58ZM237.32,81.05v108.56c0,3.32,1.19,6.19,3.57,8.58,2.38,2.39,5.23,3.59,8.54,3.59h105c3.31,0,6.16-1.2,8.54-3.59,2.38-2.39,3.57-5.26,3.57-8.58v-108.56c0-3.33-1.19-6.24-3.57-8.73-2.38-2.5-5.23-3.74-8.54-3.74h-105c-3.32,0-6.17,1.25-8.54,3.74-2.38,2.5-3.57,5.41-3.57,8.73Z"/>
    <path class="cls-4" d="M251.62,227.14H0V80.52c0-6.86,1.71-13.15,5.13-18.87,3.42-5.72,7.97-10.29,13.67-13.73,5.7-3.43,11.96-5.15,18.79-5.15h105c6.83,0,13.1,1.72,18.79,5.15,5.7,3.43,10.25,8.01,13.67,13.73,3.42,5.72,5.13,12.01,5.13,18.87v121.04h71.45v25.58ZM154.7,189.08v-108.56c0-3.32-1.19-6.19-3.57-8.58-2.38-2.39-5.23-3.59-8.54-3.59H37.59c-3.31,0-6.16,1.2-8.54,3.59-2.38,2.39-3.57,5.25-3.57,8.58v108.56c0,3.33,1.19,6.24,3.57,8.74,2.38,2.5,5.23,3.74,8.54,3.74h105c3.32,0,6.17-1.25,8.54-3.74,2.38-2.5,3.57-5.41,3.57-8.74Z"/>
    <!-- Blue X -->
    <text x="90.51" y="152" font-family="Arial, sans-serif" font-size="70" font-weight="bold" fill="#45a1da" text-anchor="middle">X</text>
    <!-- Pink X -->
    <text x="300.92" y="152" font-family="Arial, sans-serif" font-size="70" font-weight="bold" fill="#e73b67" text-anchor="middle">X</text>
    <rect class="cls-4" x="0" y="81.57" width="22.97" height="175.84"/>
    <rect class="cls-4" x="366.56" width="25.57" height="192.43"/>
    <rect class="cls-4" x="182.65" y="105.45" width="26.13" height="54.73" transform="translate(62.9 328.53) rotate(-90)"/>
    <circle class="cls-2" cx="411.28" cy="215.85" r="14.31"/>
  </g>
</svg>