<svg xmlns="http://www.w3.org/2000/svg" width="179.165" height="137.146" viewBox="0 0 179.165 137.146">
  <g id="Grupo_230" data-name="Grupo 230" transform="translate(-1224.848 -1674.637)">
    <path id="Trazado_269" data-name="Trazado 269" d="M1306.42,1674.637a34.363,34.363,0,0,0-34.325,34.322v68.5a34.363,34.363,0,0,0,34.325,34.323h16.022a34.363,34.363,0,0,0,34.325-34.323v-68.5a34.362,34.362,0,0,0-34.325-34.322Zm16.021,126.648h-16.022a23.852,23.852,0,0,1-23.826-23.825V1734.9a20.51,20.51,0,0,0,10.151,2.678h43.372a20.51,20.51,0,0,0,10.152-2.678v42.561a23.853,23.853,0,0,1-23.827,23.825Zm23.827-92.326v7.97a10.162,10.162,0,0,1-10.151,10.15h-43.372a10.162,10.162,0,0,1-10.152-10.15v-7.97a23.853,23.853,0,0,1,23.827-23.825h16.022A23.852,23.852,0,0,1,1346.268,1708.959Z" fill="#21323f"/>
    <path id="Trazado_270" data-name="Trazado 270" d="M1314.43,1695.632a5.25,5.25,0,0,0-5.249,5.249v10.451a5.25,5.25,0,0,0,10.5,0v-10.451A5.25,5.25,0,0,0,1314.43,1695.632Z" fill="#21323f"/>
    <path id="Trazado_271" data-name="Trazado 271" d="M1226.4,1748.655l26.256,25.91a5.249,5.249,0,1,0,7.374-7.472l-22.47-22.174,22.47-22.174a5.249,5.249,0,0,0-7.374-7.472l-26.256,25.91a5.266,5.266,0,0,0,0,7.472Z" fill="#542fc2"/>
    <path id="Trazado_272" data-name="Trazado 272" d="M1402.457,1741.183l-26.255-25.91a5.249,5.249,0,0,0-7.374,7.472l22.469,22.174-22.469,22.174a5.249,5.249,0,0,0,7.374,7.472l26.255-25.91a5.263,5.263,0,0,0,0-7.472Z" fill="#542fc2"/>
  </g>
</svg>
