<?xml version="1.0" encoding="UTF-8"?>
<svg id="Capa_2" data-name="Capa 2" xmlns="http://www.w3.org/2000/svg" viewBox="0 0 359.74 217.59">
  <defs>
    <style>
      .cls-1 {
        fill: #fff;
        stroke-width: 0px;
      }
    </style>
  </defs>
  <g id="Capa_1-2" data-name="Capa 1">
    <path class="cls-1" d="M118.67,36.34h212.69v123.93c0,5.8-1.44,11.12-4.33,15.95-2.89,4.83-6.74,8.7-11.55,11.6-4.82,2.9-10.11,4.35-15.89,4.35h-88.75c-5.78,0-11.07-1.45-15.89-4.35-4.82-2.9-8.67-6.77-11.55-11.6-2.89-4.84-4.33-10.15-4.33-15.95V57.96h-60.39v-21.62ZM200.59,68.51v91.76c0,2.81,1,5.23,3.02,7.25,2.01,2.02,4.42,3.03,7.22,3.03h88.75c2.8,0,5.21-1.01,7.22-3.03,2.01-2.02,3.02-4.44,3.02-7.25v-91.76c0-2.81-1.01-5.27-3.02-7.38-2.01-2.11-4.42-3.16-7.22-3.16h-88.75c-2.8,0-5.21,1.05-7.22,3.16-2.01,2.11-3.02,4.57-3.02,7.38Z"/>
    <path class="cls-1" d="M212.69,191.99H0v-123.93c0-5.8,1.44-11.12,4.33-15.95,2.89-4.83,6.74-8.7,11.55-11.6,4.82-2.9,10.11-4.35,15.89-4.35h88.75c5.78,0,11.07,1.45,15.89,4.35,4.82,2.9,8.67,6.77,11.55,11.6,2.89,4.84,4.33,10.15,4.33,15.95v102.31h60.39v21.62ZM130.76,159.82v-91.76c0-2.81-1.01-5.23-3.02-7.25-2.01-2.02-4.42-3.03-7.22-3.03H31.77c-2.8,0-5.21,1.01-7.22,3.03-2.01,2.02-3.02,4.44-3.02,7.25v91.76c0,2.81,1.01,5.27,3.02,7.38,2.01,2.11,4.42,3.16,7.22,3.16h88.75c2.8,0,5.21-1.05,7.22-3.16,2.01-2.11,3.02-4.57,3.02-7.38Z"/>
    <circle class="cls-1" cx="254.36" cy="112.27" r="24.85"/>
    <circle class="cls-1" cx="76.51" cy="112.27" r="24.85" transform="translate(-51.42 66.54) rotate(-36.06)"/>
    <rect class="cls-1" x="0" y="68.95" width="19.42" height="148.64"/>
    <rect class="cls-1" x="309.84" width="21.61" height="162.65"/>
    <rect class="cls-1" x="154.39" y="89.14" width="22.09" height="46.26" transform="translate(53.16 277.7) rotate(-90)"/>
    <circle class="cls-1" cx="347.64" cy="182.45" r="12.1"/>
  </g>
</svg>