<?xml version="1.0" encoding="UTF-8"?>
<svg id="Capa_1" data-name="Capa 1" xmlns="http://www.w3.org/2000/svg" version="1.1" viewBox="0 0 1920 1620">
  <defs>
    <style>
      .cls-1 {
        fill: #35b6e0;
      }

      .cls-1, .cls-2, .cls-3, .cls-4, .cls-5, .cls-6, .cls-7, .cls-8, .cls-9, .cls-10, .cls-11, .cls-12, .cls-13, .cls-14 {
        stroke-width: 0px;
      }

      .cls-2 {
        fill: #21323f;
      }

      .cls-15 {
        opacity: .4;
      }

      .cls-3 {
        fill: #542fc2;
      }

      .cls-4 {
        fill: #465e91;
      }

      .cls-5 {
        fill: #2c3d75;
      }

      .cls-6 {
        fill: #ff3365;
      }

      .cls-7 {
        fill: #f9e9ee;
      }

      .cls-8 {
        fill: #ff5a9e;
      }

      .cls-9 {
        fill: #192333;
      }

      .cls-10 {
        fill: #0caafd;
      }

      .cls-11 {
        fill: #fff;
      }

      .cls-12 {
        fill: #3e5a6b;
      }

      .cls-13 {
        fill: #e8ebed;
      }

      .cls-14 {
        fill: #eac3d1;
      }
    </style>
  </defs>
  <path class="cls-13" d="M1786,988.8c0,12.4-.3,24.7-.8,37-3.7,85.5-20.3,167.7-47.9,244.6-9.2,25.7-19.6,50.8-31.2,75.3-8.5,4.3-18.2,6.8-28.4,6.8H224.8c-10.2,0-19.9-2.4-28.4-6.8-11.6-24.5-22-49.6-31.2-75.3-23.4-65.4-38.9-134.6-45.3-206.4-.1-1.3-.2-2.6-.3-3.8-1.2-14.2-2.1-28.5-2.6-42.9-.3-9.5-.5-19-.5-28.5s0-5.1,0-7.7c.1-14.6.7-29.2,1.5-43.6.9-14.5,2.1-28.9,3.7-43.2C168.7,477.7,522.1,154,951.2,154s733.3,280.5,815.4,655.2c2.8,12.7,5.3,25.6,7.5,38.6,1.1,6.2,2,12.4,2.9,18.7,1.1,7.5,2.1,15,3,22.6,1.6,13.8,3,27.7,3.9,41.7,1.3,19.2,2,38.5,2,58.1Z"/>
  <path class="cls-2" d="M1377.9,839.3c5.9-4.2,13.9-5,20.8-1.5l279.9,144.5c5.6,2.9,9.3,8.1,10.6,13.8-5.3,8.9-16.8,12.2-26.2,7.3l-279.9-144.5c-5.6-2.9-9.3-8.1-10.6-13.8,1.4-2.4,3.3-4.3,5.4-5.9Z"/>
  <path class="cls-2" d="M535.9,870.5c0,7.2-4,14.2-10.9,17.8l-280.2,143.9c-5.6,2.9-12,2.9-17.4.6-4.1-9.5-.2-20.7,9.3-25.6l280.2-143.9c5.6-2.9,12-2.9,17.4-.6,1.1,2.5,1.6,5.2,1.6,7.8Z"/>
  <path class="cls-11" d="M1146,701.7h0c-11.4,0-21.7,4.8-29.1,12.4-14.8-15.4-33.6-26.9-54.7-33.1-11-3.2-22.7-4.9-34.8-4.9h-150.6c-12.1,0-23.7,1.7-34.8,4.9-22.7,6.6-42.8,19.5-58.1,36.8-7.4-9.8-19.1-16.1-32.2-16.1h0c-22.2,0-40.4,18.2-40.4,40.4v77.5c0,22.2,18.2,40.4,40.4,40.4h0c.3,0,.5,0,.8,0v228.5c0,53.1,399.2,53.1,399.2,0v-228.9c19.5-2.8,34.6-19.7,34.6-40v-77.5c0-22.2-18.2-40.4-40.4-40.4Z"/>
  <circle class="cls-5" cx="238.6" cy="1061.7" r="49.5" transform="translate(-849.4 1043.7) rotate(-76.4)"/>
  <path class="cls-5" d="M298.2,1019.4l51.9,35.2c10.1,6.9,12.8,20.8,5.9,30.9h0c-6.9,10.1-20.8,12.8-30.9,5.9l-51.9-35.2c-10.1-6.9-12.8-20.8-5.9-30.9h0c6.9-10.1,20.8-12.8,30.9-5.9Z"/>
  <g>
    <path class="cls-5" d="M1740.4,1294.2c0,17.3-7,33-18.4,44.3-4.7,4.7-10,8.6-15.9,11.6-8.5,4.3-18.2,6.8-28.4,6.8H224.8c-10.2,0-19.9-2.4-28.4-6.8-20.4-10.4-34.3-31.5-34.3-55.9s1.1-13.3,3.1-19.4c3.1-9.5,8.4-18,15.3-24.9,11.4-11.4,27-18.4,44.3-18.4h1452.9c27.8,0,51.5,18.2,59.6,43.3,2,6.1,3.1,12.6,3.1,19.4Z"/>
    <path class="cls-4" d="M1677.7,1365.3H224.8c-11.3,0-22.2-2.6-32.2-7.7-24-12.2-38.8-36.5-38.8-63.3s1.2-14.9,3.5-22c3.4-10.6,9.4-20.3,17.3-28.2,13.4-13.4,31.3-20.8,50.2-20.8h1452.9c30.9,0,58,19.7,67.6,49,2.3,7.1,3.5,14.5,3.5,22,0,19-7.4,36.8-20.8,50.2-5.3,5.3-11.4,9.7-18.1,13.1-10,5.1-20.8,7.7-32.1,7.7ZM224.8,1239.9c-14.5,0-28.2,5.7-38.4,15.9-6,6-10.6,13.5-13.2,21.6-1.8,5.4-2.7,11.1-2.7,16.8,0,20.6,11.4,39.1,29.7,48.5,7.7,3.9,15.9,5.9,24.6,5.9h1452.9c8.7,0,16.9-2,24.6-5.9,5.1-2.6,9.7-6,13.8-10,10.3-10.3,15.9-23.9,15.9-38.4s-.9-11.4-2.7-16.8c-7.3-22.4-28.1-37.5-51.7-37.5H224.8Z"/>
  </g>
  <g>
    <ellipse class="cls-4" cx="292.2" cy="1294.2" rx="42.2" ry="41.2"/>
    <ellipse class="cls-4" cx="424" cy="1294.2" rx="42.2" ry="41.2"/>
    <ellipse class="cls-4" cx="555.8" cy="1294.2" rx="42.2" ry="41.2"/>
    <ellipse class="cls-4" cx="687.6" cy="1294.2" rx="42.2" ry="41.2"/>
    <ellipse class="cls-4" cx="819.4" cy="1294.2" rx="42.2" ry="41.2"/>
    <ellipse class="cls-4" cx="951.2" cy="1294.2" rx="42.2" ry="41.2"/>
    <ellipse class="cls-4" cx="1083" cy="1294.2" rx="42.2" ry="41.2"/>
    <ellipse class="cls-4" cx="1214.8" cy="1294.2" rx="42.2" ry="41.2"/>
    <ellipse class="cls-4" cx="1346.6" cy="1294.2" rx="42.2" ry="41.2"/>
    <ellipse class="cls-4" cx="1478.4" cy="1294.2" rx="42.2" ry="41.2"/>
    <ellipse class="cls-4" cx="1610.2" cy="1294.2" rx="42.2" ry="41.2"/>
  </g>
  <rect class="cls-11" x="266.6" y="1010.5" width="260.6" height="209.5"/>
  <rect class="cls-10" x="266.6" y="1010.5" width="260.6" height="169.9"/>
  <g>
    <path class="cls-11" d="M296.3,1033.6c0,3.6-3,6.6-6.6,6.6s-6.6-3-6.6-6.6,3-6.6,6.6-6.6,6.6,3,6.6,6.6Z"/>
    <path class="cls-11" d="M322.7,1033.6c0,3.6-3,6.6-6.6,6.6s-6.6-3-6.6-6.6,3-6.6,6.6-6.6,6.6,3,6.6,6.6Z"/>
    <path class="cls-11" d="M349.1,1033.6c0,3.6-3,6.6-6.6,6.6s-6.6-3-6.6-6.6,3-6.6,6.6-6.6,6.6,3,6.6,6.6Z"/>
  </g>
  <g>
    <path class="cls-11" d="M503.9,1028.9l-9.3,9.3,9.3-9.3Z"/>
    <path class="cls-11" d="M494.5,1040.7c-.6,0-1.3-.2-1.7-.7-1-1-1-2.5,0-3.5l9.3-9.3c1-1,2.5-1,3.5,0,1,1,1,2.5,0,3.5l-9.3,9.3c-.5.5-1.1.7-1.8.7Z"/>
  </g>
  <g>
    <path class="cls-11" d="M503.9,1038.2l-9.3-9.3,9.3,9.3Z"/>
    <path class="cls-11" d="M503.9,1040.7c-.6,0-1.3-.2-1.8-.7l-9.3-9.3c-1-1-1-2.5,0-3.5,1-1,2.5-1,3.5,0l9.3,9.3c1,1,1,2.5,0,3.5-.5.5-1.1.7-1.7.7Z"/>
  </g>
  <path class="cls-11" d="M481.9,1040.2h-13.2c-1.4,0-2.5-1.1-2.5-2.5s1.1-2.5,2.5-2.5h13.2c1.4,0,2.5,1.1,2.5,2.5s-1.1,2.5-2.5,2.5Z"/>
  <g>
    <polygon class="cls-11" points="437.2 1135.6 418.9 1135.6 418.9 1126.5 428.1 1126.5 428.1 1117.4 437.2 1117.4 437.2 1135.6"/>
    <rect class="cls-11" x="385.5" y="1126.5" width="16.7" height="9.1"/>
    <polygon class="cls-11" points="368.8 1135.6 350.5 1135.6 350.5 1117.4 359.6 1117.4 359.6 1126.5 368.8 1126.5 368.8 1135.6"/>
    <polygon class="cls-11" points="359.6 1092.2 350.5 1092.2 350.5 1073.9 368.8 1073.9 368.8 1083 359.6 1083 359.6 1092.2"/>
    <rect class="cls-11" x="385.5" y="1073.9" width="16.7" height="9.1"/>
    <polygon class="cls-11" points="437.2 1092.2 428.1 1092.2 428.1 1083 418.9 1083 418.9 1073.9 437.2 1073.9 437.2 1092.2"/>
  </g>
  <rect class="cls-11" x="1376.8" y="1010.5" width="260.6" height="209.5"/>
  <path class="cls-5" d="M1632.5,1024.6l-50.4,37.3c-9.8,7.3-23.9,5.2-31.1-4.7h0c-7.3-9.8-5.2-23.9,4.7-31.1l50.4-37.3c9.8-7.3,23.9-5.2,31.1,4.7h0c7.3,9.8,5.2,23.9-4.7,31.1Z"/>
  <circle class="cls-5" cx="1667.3" cy="1028.7" r="49.5" transform="translate(-120.7 227.9) rotate(-7.5)"/>
  <rect class="cls-10" x="1376.8" y="1010.5" width="260.6" height="169.9"/>
  <g>
    <path class="cls-11" d="M1406.5,1033.6c0,3.6-3,6.6-6.6,6.6s-6.6-3-6.6-6.6,3-6.6,6.6-6.6,6.6,3,6.6,6.6Z"/>
    <path class="cls-11" d="M1432.9,1033.6c0,3.6-3,6.6-6.6,6.6s-6.6-3-6.6-6.6,3-6.6,6.6-6.6,6.6,3,6.6,6.6Z"/>
    <path class="cls-11" d="M1459.3,1033.6c0,3.6-3,6.6-6.6,6.6s-6.6-3-6.6-6.6,3-6.6,6.6-6.6,6.6,3,6.6,6.6Z"/>
  </g>
  <g>
    <path class="cls-11" d="M1614.1,1028.9l-9.3,9.3,9.3-9.3Z"/>
    <path class="cls-11" d="M1604.8,1040.7c-.6,0-1.3-.2-1.7-.7-1-1-1-2.5,0-3.5l9.3-9.3c1-1,2.5-1,3.5,0,1,1,1,2.5,0,3.5l-9.3,9.3c-.5.5-1.1.7-1.7.7Z"/>
  </g>
  <g>
    <path class="cls-11" d="M1614.1,1038.2l-9.3-9.3,9.3,9.3Z"/>
    <path class="cls-11" d="M1614.1,1040.7c-.6,0-1.3-.2-1.7-.7l-9.3-9.3c-1-1-1-2.5,0-3.5s2.5-1,3.5,0l9.3,9.3c1,1,1,2.5,0,3.5-.5.5-1.1.7-1.7.7Z"/>
  </g>
  <path class="cls-11" d="M1592.1,1040.2h-13.2c-1.4,0-2.5-1.1-2.5-2.5s1.1-2.5,2.5-2.5h13.2c1.4,0,2.5,1.1,2.5,2.5s-1.1,2.5-2.5,2.5Z"/>
  <g>
    <path class="cls-11" d="M1627.6,1116.3v27.6c0,5.8-4.7,10.6-10.6,10.6h-34.9c-5.8,0-10.6-4.7-10.6-10.6v-27.6c0-2.3.8-4.5,2.1-6.3.5-.7,1.2-1.4,1.9-2,1.8-1.4,4.1-2.3,6.6-2.3h34.9c2.5,0,4.8.9,6.5,2.3.7.6,1.4,1.2,1.9,2,1.3,1.8,2.1,4,2.1,6.3Z"/>
    <path class="cls-1" d="M1573.6,1110l24.5,27c.3.3.6.5,1,.5h0c.4,0,.7-.2,1-.4l25.4-27c-.6-.7-1.2-1.4-1.9-2l-24.5,26-23.6-26-1.9,2Z"/>
  </g>
  <g>
    <path class="cls-11" d="M1601.1,1074.5c-2.5,5.3-8.8,7.7-14.2,5.2-5.3-2.5-7.7-8.8-5.2-14.2,2.5-5.3,8.8-7.7,14.2-5.2,5.3,2.5,7.7,8.8,5.2,14.2Z"/>
    <path class="cls-11" d="M1612.3,1083.2l-16.3-7.6c-1.5-.7-2.2-2.6-1.5-4.1h0c.7-1.5,2.6-2.2,4.1-1.5l16.3,7.6c1.5.7,2.2,2.6,1.5,4.1h0c-.7,1.5-2.6,2.2-4.1,1.5Z"/>
  </g>
  <path class="cls-11" d="M1561.6,1081.4h-161.7c-4.6,0-8.2-3.7-8.2-8.2h0c0-4.6,3.7-8.2,8.2-8.2h161.7c4.6,0,8.2,3.7,8.2,8.2h0c0,4.6-3.7,8.2-8.2,8.2Z"/>
  <path class="cls-5" d="M246.4,1095.8l51.9,35.2c10.1,6.9,12.8,20.8,5.9,30.9h0c-6.9,10.1-20.8,12.8-30.9,5.9l-51.9-35.2c-10.1-6.9-12.8-20.8-5.9-30.9h0c6.9-10.1,20.8-12.8,30.9-5.9Z"/>
  <path class="cls-11" d="M285.1,1156l-51.9-35.2c-9.2-6.3-12.3-18.4-7.5-28.2-1-.6-2-1.2-3-1.9-22.6-15.3-28.5-46.1-13.2-68.7.2-.3.4-.5.6-.8-4.7,3.3-9,7.6-12.4,12.7-15.3,22.6-9.4,53.4,13.2,68.7,1,.7,2,1.3,3,1.9-4.8,9.8-1.8,21.9,7.5,28.2l51.9,35.2c10.1,6.9,24.1,4.2,30.9-5.9h0c.8-1.2,1.5-2.6,2.1-3.9-6.7,2.8-14.7,2.3-21.2-2Z"/>
  <path class="cls-5" d="M1687.4,1098.9l-50.4,37.3c-9.8,7.3-23.9,5.2-31.1-4.7h0c-7.3-9.8-5.2-23.9,4.7-31.1l50.4-37.3c9.8-7.3,23.9-5.2,31.1,4.7h0c7.3,9.8,5.2,23.9-4.7,31.1Z"/>
  <rect class="cls-2" x="752.6" y="1106.2" width="407.5" height="117.1"/>
  <g>
    <path class="cls-11" d="M766.9,755.7c0,5.7-3.1,11.2-8.4,14l-216.5,112.9c-4.3,2.2-9.3,2.3-13.4.5-3.2-1.4-6-3.8-7.7-7.1-4-7.7-1-17.2,6.6-21.1l216.5-112.9c7.7-4,17.2-1,21.1,6.6.2.3.3.7.5,1.1.9,2,1.3,4.1,1.3,6.1Z"/>
    <path class="cls-11" d="M802,823c0,5.7-3.1,11.2-8.4,13.9l-216.5,112.9c-4.3,2.2-9.2,2.3-13.4.5-3.2-1.4-6-3.8-7.7-7.1-4-7.6-1-17.1,6.6-21.1l216.5-112.9c7.7-4,17.2-1,21.1,6.7.2.4.4.7.5,1.1.9,2,1.3,4.1,1.3,6.1Z"/>
  </g>
  <g>
    <path class="cls-2" d="M760.2,749c0,5.7-3.2,11.2-8.9,14l-228.7,112.9c-4.6,2.2-9.8,2.3-14.2.5-3.4-7.4-.1-16.3,7.6-20l228.7-112.9c4.6-2.3,9.8-2.3,14.2-.5.9,2,1.3,4.1,1.3,6.1Z"/>
    <path class="cls-2" d="M795.3,816.3c0,5.7-3.1,11.2-8.4,13.9l-216.5,112.9c-4.3,2.2-9.2,2.3-13.4.5-3.2-7.4-.1-16.2,7.2-20l216.5-112.9c4.3-2.2,9.3-2.3,13.4-.5.9,2,1.3,4.1,1.3,6.1Z"/>
  </g>
  <g>
    <path class="cls-11" d="M853.2,511.6h0c-5.9,0-10.7-4.8-10.7-10.7v-146.8c0-5.9,4.8-10.7,10.7-10.7h0c5.9,0,10.7,4.8,10.7,10.7v146.8c0,5.9-4.8,10.7-10.7,10.7Z"/>
    <path class="cls-11" d="M1051.2,511.6h0c-5.9,0-10.7-4.8-10.7-10.7v-146.8c0-5.9,4.8-10.7,10.7-10.7h0c5.9,0,10.7,4.8,10.7,10.7v146.8c0,5.9-4.8,10.7-10.7,10.7Z"/>
  </g>
  <g>
    <path class="cls-5" d="M853.2,518.9h0c-5.9,0-10.7-4.8-10.7-10.7v-146.8c0-5.9,4.8-10.7,10.7-10.7h0c5.9,0,10.7,4.8,10.7,10.7v146.8c0,5.9-4.8,10.7-10.7,10.7Z"/>
    <path class="cls-5" d="M1051.2,518.9h0c-5.9,0-10.7-4.8-10.7-10.7v-146.8c0-5.9,4.8-10.7,10.7-10.7h0c5.9,0,10.7,4.8,10.7,10.7v146.8c0,5.9-4.8,10.7-10.7,10.7Z"/>
  </g>
  <g>
    <path class="cls-9" d="M853.2,544.4h0c-5.9,0-10.7-4.8-10.7-10.7v-146.8c0-5.9,4.8-10.7,10.7-10.7h0c5.9,0,10.7,4.8,10.7,10.7v146.8c0,5.9-4.8,10.7-10.7,10.7Z"/>
    <path class="cls-9" d="M1051.2,544.4h0c-5.9,0-10.7-4.8-10.7-10.7v-146.8c0-5.9,4.8-10.7,10.7-10.7h0c5.9,0,10.7,4.8,10.7,10.7v146.8c0,5.9-4.8,10.7-10.7,10.7Z"/>
  </g>
  <path class="cls-7" d="M1151.8,820.5v288.1c0,53.1-399.2,53.1-399.2,0v-288.1c0-56.6,37.8-104.3,89.5-119.4,11-3.2,22.7-4.9,34.8-4.9h150.6c12.1,0,23.7,1.7,34.8,4.9,51.7,15,89.5,62.8,89.5,119.4Z"/>
  <path class="cls-14" d="M1062.3,701.2c-24.1,43.6-64.4,72.2-110.1,72.2s-86-28.6-110.1-72.2c11-3.2,22.7-4.9,34.8-4.9h150.6c12.1,0,23.7,1.7,34.8,4.9Z"/>
  <circle class="cls-5" cx="711.4" cy="1018.8" r="49.5" transform="translate(-283.8 274.7) rotate(-18.3)"/>
  <path class="cls-11" d="M952.2,769h0c58.5,0,106,47.5,106,106v93.2c0,58.5-47.5,106-106,106h0c-58.5,0-106-47.5-106-106v-93.2c0-58.5,47.5-106,106-106Z"/>
  <rect class="cls-5" x="846.2" y="783.7" width="212" height="305.2" rx="37.9" ry="37.9"/>
  <circle class="cls-10" cx="952.2" cy="882.6" r="59.4" transform="translate(-345.2 931.8) rotate(-45)"/>
  <polygon class="cls-11" points="952.2 841.8 916.9 903 987.6 903 952.2 841.8 916.9 903 987.6 903 952.2 841.8"/>
  <path class="cls-10" d="M991.8,997.3h-77.5c-5.5,0-9.9-4.4-9.9-9.9h0c0-5.5,4.4-9.9,9.9-9.9h77.5c5.5,0,9.9,4.4,9.9,9.9h0c0,5.5-4.4,9.9-9.9,9.9Z"/>
  <path class="cls-1" d="M991.8,1040.2h-77.5c-5.5,0-9.9-4.4-9.9-9.9h0c0-5.5,4.4-9.9,9.9-9.9h77.5c5.5,0,9.9,4.4,9.9,9.9h0c0,5.5-4.4,9.9-9.9,9.9Z"/>
  <path class="cls-9" d="M1019.5,807.7c15.1,18.3,24.1,41.7,24.1,67.3v93.2c0,58.5-47.5,106-106,106h0c-25.5,0-49-9-67.3-24.1,19.4,23.6,48.9,38.7,81.9,38.7h0c58.5,0,106-47.5,106-106v-93.2c0-33-15.1-62.5-38.7-81.9Z"/>
  <ellipse class="cls-11" cx="952.2" cy="557.7" rx="133.5" ry="166.2"/>
  <path class="cls-11" d="M833.7,562.9v24.5c0,16.9-13.8,30.6-30.7,30.6s-30.6-13.8-30.6-30.6v-24.5c0-16.9,13.8-30.7,30.6-30.7s16.1,3.5,21.7,9c5.6,5.6,9,13.2,9,21.7Z"/>
  <path class="cls-2" d="M842.4,574.3v4.4c0,16.9-13.8,30.6-30.7,30.6s-30.6-13.8-30.6-30.6v-4.4c0-16.9,13.8-30.7,30.6-30.7s16.1,3.5,21.7,9c5.6,5.6,9,13.2,9,21.7Z"/>
  <rect class="cls-14" x="802.4" y="509.1" width="61.3" height="129.4" rx="10.9" ry="10.9"/>
  <path class="cls-11" d="M1132,562.9v24.5c0,16.9-13.8,30.6-30.7,30.6s-30.6-13.8-30.6-30.6v-24.5c0-16.9,13.8-30.7,30.6-30.7s16.1,3.5,21.7,9c5.6,5.6,9,13.2,9,21.7Z"/>
  <path class="cls-2" d="M1123.4,574.3v4.4c0,16.9-13.8,30.6-30.7,30.6s-30.6-13.8-30.6-30.6v-4.4c0-16.9,13.8-30.7,30.6-30.7s16.1,3.5,21.7,9c5.6,5.6,9,13.2,9,21.7Z"/>
  <path class="cls-14" d="M1070,639.2h0c-16.9,0-30.7-13.8-30.7-30.6v-68.1c0-16.9,13.8-30.7,30.7-30.7h0c16.9,0,30.6,13.8,30.6,30.7v68.1c0,16.9-13.8,30.6-30.6,30.6Z"/>
  <ellipse class="cls-7" cx="952.2" cy="574.1" rx="133.5" ry="166.2"/>
  <circle class="cls-11" cx="952.9" cy="596.7" r="102.5"/>
  <circle class="cls-10" cx="952.9" cy="607.7" r="102.5" transform="translate(-150.6 851.8) rotate(-45)"/>
  <circle class="cls-2" cx="952.9" cy="607.7" r="89.9" transform="translate(17.5 1241.9) rotate(-66.7)"/>
  <path class="cls-12" d="M1010.3,538.5c12.9,15.6,20.7,35.6,20.7,57.4,0,49.7-40.3,89.9-89.9,89.9s-41.8-7.8-57.4-20.7c16.5,19.9,41.4,32.5,69.2,32.5,49.7,0,89.9-40.3,89.9-89.9s-12.7-52.7-32.5-69.2Z"/>
  <path class="cls-11" d="M989,640.4c0,20.3-16.5,36.8-36.8,36.8s-36.8-16.5-36.8-36.8h73.6Z"/>
  <circle class="cls-10" cx="915.4" cy="585.2" r="15" transform="translate(-145.7 818.7) rotate(-45)"/>
  <circle class="cls-6" cx="989" cy="585.2" r="15" transform="translate(-124.1 870.7) rotate(-45)"/>
  <path class="cls-5" d="M771,976.5l51.9,35.2c10.1,6.9,12.8,20.8,5.9,30.9h0c-6.9,10.1-20.8,12.8-30.9,5.9l-51.9-35.2c-10.1-6.9-12.8-20.8-5.9-30.9h0c6.9-10.1,20.8-12.8,30.9-5.9Z"/>
  <path class="cls-11" d="M713.7,995.9h0c-21.5,31.7-64.6,39.9-96.2,18.4l-96.9-65.8c-31.7-21.5-39.9-64.6-18.4-96.2h0c21.5-31.7,64.6-39.9,96.2-18.4l96.9,65.8c31.7,21.5,39.9,64.6,18.4,96.2Z"/>
  <path class="cls-2" d="M822.9,1011.7l-51.9-35.2c-9.2-6.3-21.6-4.6-29,3.5-.9-.7-1.9-1.4-2.9-2.1-22.6-15.3-53.4-9.4-68.7,13.2-15.3,22.6-9.4,53.4,13.2,68.7,1,.7,2,1.3,3,1.9-4.8,9.8-1.8,21.9,7.5,28.2l51.9,35.2c10.1,6.9,24.1,4.2,30.9-5.9,6.9-10.1,4.2-24.1-5.9-30.9l-37.2-25.2c7.2-3.7,13.7-9.2,18.5-16.3,4.9-7.2,7.6-15.2,8.3-23.3l37.2,25.2c10.1,6.9,24.1,4.2,30.9-5.9,6.9-10.1,4.2-24.1-5.9-30.9Z"/>
  <g>
    <path class="cls-11" d="M670.5,1002c15.3-22.6,46.1-28.5,68.7-13.2,1,.7,1.9,1.4,2.9,2.1,7.3-8,19.7-9.7,29-3.5l51.9,35.2c4.4,3,7.4,7.3,8.8,12.1,2.7-9.1-.6-19.3-8.8-24.9l-51.9-35.2c-9.2-6.3-21.6-4.6-29,3.5-.9-.7-1.9-1.4-2.9-2.1-22.6-15.3-53.4-9.4-68.7,13.2-7.1,10.4-9.6,22.6-8.1,34.1,1-7.4,3.6-14.7,8.1-21.4Z"/>
    <path class="cls-11" d="M686.7,1072.6c-.7-.4-1.4-.9-2.2-1.3.1,1.6.4,3.2.9,4.7.3-1.1.8-2.3,1.3-3.3Z"/>
    <path class="cls-11" d="M771,1086.3l-27.7-18.8c-2.9,2.5-6.1,4.6-9.5,6.3l37.2,25.2c4.4,3,7.4,7.3,8.8,12.1,2.7-9.1-.6-19.3-8.8-24.9Z"/>
  </g>
  <path class="cls-7" d="M704.6,1014.2h0c-21.5,31.7-64.6,39.9-96.2,18.4l-96.9-65.8c-31.7-21.5-39.9-64.6-18.4-96.2h0c21.5-31.7,64.6-39.9,96.2-18.4l96.9,65.8c31.7,21.5,39.9,64.6,18.4,96.2Z"/>
  <path class="cls-14" d="M642.2,998.8l-96.9-65.8c-28.5-19.3-38-56.2-24-86.4-11.1,5.1-20.9,13.2-28.2,24h0c-21.5,31.7-13.2,74.8,18.4,96.2l96.9,65.8c31.7,21.5,74.8,13.2,96.2-18.4h0c2.1-3.2,4-6.4,5.5-9.8-21.3,9.8-47.1,8.6-68-5.5Z"/>
  <g>
    <path class="cls-11" d="M1387.2,910.3h0c-2.6,8.2-11.4,12.9-19.6,10.4l-233.4-71.8c-5.1-1.6-8.9-5.6-10.4-10.4-.9-2.9-.9-6,0-9.1,2.1-6.7,8.3-11.1,15-11.1s3.1.2,4.6.7l233.4,71.8c8.2,2.5,12.9,11.3,10.4,19.6Z"/>
    <path class="cls-11" d="M1409.5,837.8c-2.5,8.2-11.4,12.9-19.6,10.4l-233.4-71.8c-5.1-1.6-8.9-5.6-10.4-10.4-.9-2.9-.9-6,0-9.1,2.1-6.7,8.3-11.1,15-11.1s3.1.2,4.6.7l233.4,71.8c8.2,2.5,12.9,11.3,10.4,19.6Z"/>
  </g>
  <g>
    <path class="cls-2" d="M1380.4,903.6c-2.6,8.2-11.4,12.9-19.6,10.4l-233.4-71.8c-5.1-1.6-8.9-5.6-10.4-10.4,2.1-6.7,8.3-11.1,15-11.1s3.1.2,4.6.7l233.4,71.8c5.2,1.6,8.9,5.6,10.4,10.5Z"/>
    <path class="cls-2" d="M1402.7,831c-2.5,8.2-11.4,12.9-19.6,10.4l-233.4-71.8c-5.1-1.6-8.9-5.6-10.4-10.4,2.1-6.7,8.3-11.1,15-11.1s3.1.2,4.6.7l233.4,71.8c5.2,1.6,8.9,5.6,10.4,10.5Z"/>
  </g>
  <path class="cls-7" d="M751.8,880.2h0c-22.2,0-40.4-18.2-40.4-40.4v-77.5c0-22.2,18.2-40.4,40.4-40.4h0c22.2,0,40.4,18.2,40.4,40.4v77.5c0,22.2-18.2,40.4-40.4,40.4Z"/>
  <path class="cls-7" d="M1146,880.2h0c-22.2,0-40.4-18.2-40.4-40.4v-77.5c0-22.2,18.2-40.4,40.4-40.4h0c22.2,0,40.4,18.2,40.4,40.4v77.5c0,22.2-18.2,40.4-40.4,40.4Z"/>
  <circle class="cls-14" cx="952.2" cy="431.4" r="51.1"/>
  <circle class="cls-11" cx="952.2" cy="416.6" r="51.1"/>
  <circle class="cls-2" cx="952.2" cy="416.6" r="29.7" transform="translate(443.5 1323) rotate(-84.3)"/>
  <rect class="cls-10" x="751" y="1007.2" width="148.5" height="123.7" rx="14.8" ry="14.8"/>
  <g>
    <circle class="cls-11" cx="804.7" cy="1058.6" r="30.4" transform="translate(-501.2 808.1) rotate(-41.9)"/>
    <path class="cls-11" d="M863.9,1096.1l-46.4-21.5c-4.4-2-6.3-7.3-4.3-11.7h0c2-4.4,7.3-6.3,11.7-4.3l46.4,21.5c4.4,2,6.3,7.3,4.3,11.7h0c-2,4.4-7.3,6.3-11.7,4.3Z"/>
  </g>
  <path class="cls-2" d="M719.2,1053l51.9,35.2c10.1,6.9,12.8,20.8,5.9,30.9h0c-6.9,10.1-20.8,12.8-30.9,5.9l-51.9-35.2c-10.1-6.9-12.8-20.8-5.9-30.9h0c6.9-10.1,20.8-12.8,30.9-5.9Z"/>
  <circle class="cls-2" cx="1209.6" cy="975.9" r="49.5" transform="translate(-206.2 1616.9) rotate(-63.3)"/>
  <path class="cls-2" d="M1174.9,971.9l-50.4,37.3c-9.8,7.3-23.9,5.2-31.1-4.7h0c-7.3-9.8-5.2-23.9,4.7-31.1l50.4-37.3c9.8-7.3,23.9-5.2,31.1,4.7h0c7.3,9.8,5.2,23.9-4.7,31.1Z"/>
  <path class="cls-11" d="M1194.5,957.1h0c-20.6-32.2-11.2-75.1,21-95.7l98.7-63.1c32.2-20.6,75.1-11.2,95.7,21h0c20.6,32.2,11.2,75.1-21,95.7l-98.7,63.1c-32.2,20.6-75.1,11.2-95.7-21Z"/>
  <g>
    <path class="cls-11" d="M1107.1,980.6l50.4-37.3c9-6.6,21.4-5.5,29.1,2.3.9-.8,1.8-1.5,2.8-2.2,18.2-13.4,42.4-12.6,59.5.5-16.4-21.3-46.9-25.7-68.6-9.6-1,.7-1.9,1.5-2.8,2.2-7.6-7.7-20.1-8.9-29.1-2.3l-50.4,37.3c-9.8,7.3-11.9,21.3-4.7,31.1,2,2.7,4.6,4.9,7.4,6.4-5.1-9.6-2.6-21.8,6.4-28.4Z"/>
    <path class="cls-11" d="M1162,1054.9l36.1-26.7c-4.1-1.9-8-4.4-11.5-7.4l-33.7,25c-9.8,7.3-11.9,21.3-4.7,31.1h0c2,2.7,4.6,4.9,7.4,6.4-5.1-9.6-2.6-21.8,6.4-28.4Z"/>
    <path class="cls-11" d="M1164.3,993.7c1.5,3.4,3.3,6.6,5.6,9.7,2.8,3.8,6.1,7.1,9.7,9.8-.2-.2-.4-.5-.6-.7-5.2-7-8.2-14.9-9.3-22.9l-5.5,4Z"/>
  </g>
  <path class="cls-7" d="M1201.8,969.8h0c-20.6-32.2-11.2-75.1,21-95.7l98.7-63.1c32.2-20.6,75.1-11.2,95.7,21h0c20.6,32.2,11.2,75.1-21,95.7l-98.7,63.1c-32.2,20.6-75.1,11.2-95.7-21Z"/>
  <path class="cls-14" d="M1417.2,832.1h0c-6.4-9.9-14.8-17.7-24.4-23.1,17.9,31.8,8.1,72.4-23.1,92.3l-98.7,63.1c-22.3,14.3-49.7,14.1-71.3,2.1.6,1.1,1.3,2.3,2,3.4h0c20.6,32.2,63.5,41.6,95.7,21l98.7-63.1c32.2-20.6,41.6-63.5,21-95.7Z"/>
  <rect class="cls-10" x="1046.2" y="985.7" width="148.5" height="123.7" rx="14.8" ry="14.8"/>
  <g>
    <path class="cls-11" d="M1163.4,1026.5v42.2c0,8.9-7.2,16.2-16.2,16.2h-53.4c-8.9,0-16.2-7.2-16.2-16.2v-42.2c0-3.6,1.2-6.9,3.1-9.6.8-1.1,1.8-2.2,2.9-3.1,2.8-2.2,6.3-3.5,10.1-3.5h53.4c3.8,0,7.3,1.3,10,3.5,1.1.9,2.1,1.9,2.9,3,2,2.7,3.2,6,3.2,9.7Z"/>
    <path class="cls-1" d="M1080.7,1016.9l37.5,41.2c.4.4,1,.7,1.5.7h0c.6,0,1.1-.2,1.5-.7l38.8-41.4c-.8-1.1-1.8-2.2-2.9-3l-37.4,39.8-36.1-39.8-2.9,3.1Z"/>
  </g>
  <path class="cls-2" d="M1229.8,1046.1l-50.4,37.3c-9.8,7.3-23.9,5.2-31.1-4.7h0c-7.3-9.8-5.2-23.9,4.7-31.1l50.4-37.3c9.8-7.3,23.9-5.2,31.1,4.7h0c7.3,9.8,5.2,23.9-4.7,31.1Z"/>
  <path class="cls-6" d="M922.5,1153h-25.5v-9.1h25.5v9.1ZM871.5,1153h-25.5v-9.1h25.5v9.1ZM820.5,1153h-25.5v-9.1h25.5v9.1ZM769.4,1153h-25.5v-9.1h25.5v9.1ZM927.1,1135.7h-9.1v-25.5h9.1v25.5ZM735.7,1135.7h-9.1v-25.5h9.1v25.5ZM927.1,1084.7h-9.1v-25.5h9.1v25.5ZM735.7,1084.7h-9.1v-25.5h9.1v25.5ZM927.1,1033.6h-9.1v-25.5h9.1v25.5ZM735.7,1033.6h-9.1v-25.5h9.1v25.5ZM916.1,993.6h-25.5v-9.1h25.5v9.1ZM865.1,993.6h-25.5v-9.1h25.5v9.1ZM814.1,993.6h-25.5v-9.1h25.5v9.1ZM763.1,993.6h-25.5v-9.1h25.5v9.1Z"/>
  <path class="cls-6" d="M1216.2,1130.6h-25.5v-9.1h25.5v9.1ZM1165.1,1130.6h-25.5v-9.1h25.5v9.1ZM1114.1,1130.6h-25.5v-9.1h25.5v9.1ZM1063.1,1130.6h-25.5v-9.1h25.5v9.1ZM1220.7,1113.2h-9.1v-25.5h9.1v25.5ZM1029.4,1113.2h-9.1v-25.5h9.1v25.5ZM1220.7,1062.2h-9.1v-25.5h9.1v25.5ZM1029.4,1062.2h-9.1v-25.5h9.1v25.5ZM1220.7,1011.2h-9.1v-25.5h9.1v25.5ZM1029.4,1011.2h-9.1v-25.5h9.1v25.5ZM1209.8,971.1h-25.5v-9.1h25.5v9.1ZM1158.8,971.1h-25.5v-9.1h25.5v9.1ZM1107.7,971.1h-25.5v-9.1h25.5v9.1ZM1056.7,971.1h-25.5v-9.1h25.5v9.1Z"/>
  <g>
    <path class="cls-3" d="M1120.5,1194.6h-25.5v-9.1h25.5v9.1ZM1069.4,1194.6h-25.5v-9.1h25.5v9.1ZM1018.4,1194.6h-25.5v-9.1h25.5v9.1ZM967.4,1194.6h-25.5v-9.1h25.5v9.1ZM916.4,1194.6h-25.5v-9.1h25.5v9.1ZM865.3,1194.6h-25.5v-9.1h25.5v9.1ZM814.3,1194.6h-25.5v-9.1h25.5v9.1ZM1125,1177.3h-9.1v-25.5h9.1v25.5ZM789.1,1168.8h-9.1v-25.5h9.1v25.5ZM1125,1126.2h-9.1v-25.5h9.1v25.5ZM789.1,1117.7h-9.1v-25.5h9.1v25.5ZM1125,1075.2h-9.1v-25.5h9.1v25.5ZM789.1,1066.7h-9.1v-25.5h9.1v25.5ZM1125,1024.2h-9.1v-25.5h9.1v25.5ZM789.1,1015.7h-9.1v-25.5h9.1v25.5ZM1125,973.2h-9.1v-25.5h9.1v25.5ZM789.1,964.7h-9.1v-25.5h9.1v25.5ZM1120.5,924.6h-23.4v-9.1h28v6.7h-4.6v2.4ZM1071.6,924.6h-25.5v-9.1h25.5v9.1ZM1020.5,924.6h-25.5v-9.1h25.5v9.1ZM969.5,924.6h-25.5v-9.1h25.5v9.1ZM918.5,924.6h-25.5v-9.1h25.5v9.1ZM867.5,924.6h-25.5v-9.1h25.5v9.1ZM816.4,924.6h-25.5v-9.1h25.5v9.1Z"/>
    <path class="cls-3" d="M1120.5,1143.6h-25.5v-9.1h25.5v9.1ZM1069.4,1143.6h-25.5v-9.1h25.5v9.1ZM1018.4,1143.6h-25.5v-9.1h25.5v9.1ZM967.4,1143.6h-25.5v-9.1h25.5v9.1ZM916.4,1143.6h-25.5v-9.1h25.5v9.1ZM865.3,1143.6h-25.5v-9.1h25.5v9.1ZM814.3,1143.6h-25.5v-9.1h25.5v9.1ZM1125,1126.2h-9.1v-25.5h9.1v25.5ZM789.1,1117.7h-9.1v-25.5h9.1v25.5ZM1125,1075.2h-9.1v-25.5h9.1v25.5ZM789.1,1066.7h-9.1v-25.5h9.1v25.5ZM1125,1024.2h-9.1v-25.5h9.1v25.5ZM789.1,1015.7h-9.1v-25.5h9.1v25.5ZM1125,973.2h-9.1v-25.5h9.1v25.5ZM789.1,964.7h-9.1v-25.5h9.1v25.5ZM1120.5,924.6h-23.4v-9.1h28v6.7h-4.6v2.4ZM1071.6,924.6h-25.5v-9.1h25.5v9.1ZM1020.5,924.6h-25.5v-9.1h25.5v9.1ZM969.5,924.6h-25.5v-9.1h25.5v9.1ZM918.5,924.6h-25.5v-9.1h25.5v9.1ZM867.5,924.6h-25.5v-9.1h25.5v9.1ZM816.4,924.6h-25.5v-9.1h25.5v9.1Z"/>
  </g>
  <path class="cls-11" d="M427.2,922.6h-34.8l-17.4-30.1,17.4-30.1h34.8l17.4,30.1-17.4,30.1ZM397.7,913.5h24.3l12.1-21-12.1-21h-24.3l-12.1,21,12.1,21Z"/>
  <path class="cls-10" d="M404.7,905h-48.3l-24.1-41.8,24.1-41.8h48.3l24.1,41.8-24.1,41.8ZM361.7,895.9h37.7l18.9-32.7-18.9-32.7h-37.7l-18.9,32.7,18.9,32.7Z"/>
  <path class="cls-3" d="M370.2,877.9h-68.6l-34.3-59.4,34.3-59.4h68.6l34.3,59.4-34.3,59.4ZM306.8,868.8h58.1l29-50.3-29-50.3h-58.1l-29,50.3,29,50.3Z"/>
  <path class="cls-3" d="M644,456.4h-36.6l-18.3-31.7,18.3-31.7h36.6l18.3,31.7-18.3,31.7ZM612.6,447.2h26.1l13-22.6-13-22.6h-26.1l-13,22.6,13,22.6Z"/>
  <path class="cls-3" d="M653.6,373.7h-36.6l-18.3-31.7,18.3-31.7h36.6l18.3,31.7-18.3,31.7ZM622.3,364.5h26.1l13-22.6-13-22.6h-26.1l-13,22.6,13,22.6Z"/>
  <path class="cls-3" d="M715.7,430.3h-36.6l-18.3-31.7,18.3-31.7h36.6l18.3,31.7-18.3,31.7ZM684.3,421.1h26.1l13-22.6-13-22.6h-26.1l-13,22.6,13,22.6Z"/>
  <polygon class="cls-3" points="1589.9 956.5 1580.7 956.5 1580.7 870.9 1624 803.2 1528.3 751.7 1528.3 681.9 1537.4 681.9 1537.4 746.3 1637 799.8 1589.9 873.6 1589.9 956.5"/>
  <rect class="cls-3" x="1521.2" y="669" width="24.4" height="24.4"/>
  <rect class="cls-3" x="1521.8" y="736.8" width="24.4" height="24.4"/>
  <rect class="cls-3" x="1618.3" y="789.3" width="24.4" height="24.4"/>
  <rect class="cls-3" x="1573.1" y="860" width="24.4" height="24.4"/>
  <rect class="cls-3" x="1573.1" y="944.3" width="24.4" height="24.4"/>
  <path class="cls-11" d="M663,751.1h-59.1v-73.7h59.1v73.7ZM613.1,742h40.8v-55.4h-40.8v55.4Z"/>
  <path class="cls-10" d="M640.2,723.7h-90.1v-113.8h90.1v113.8ZM559.2,714.6h71.9v-95.5h-71.9v95.5Z"/>
  <g>
    <polygon class="cls-10" points="1408.9 594.3 1402.5 587.9 1411.8 578.5 1367.1 533.7 1357.7 543.1 1351.2 536.7 1367.1 520.8 1424.8 578.5 1408.9 594.3"/>
    <polygon class="cls-10" points="1344.2 659 1286.6 601.3 1302.4 585.5 1308.8 592 1299.5 601.3 1344.2 646.1 1353.6 636.7 1360.1 643.2 1344.2 659"/>
  </g>
  <g>
    <polygon class="cls-3" points="1378.3 593.6 1371.8 587.1 1373.5 585.5 1360.1 572.1 1358.4 573.7 1352 567.3 1360.1 559.2 1386.4 585.5 1378.3 593.6"/>
    <polygon class="cls-3" points="1351.2 620.7 1324.9 594.4 1333 586.2 1339.5 592.7 1337.8 594.3 1351.2 607.8 1352.9 606.1 1359.3 612.6 1351.2 620.7"/>
  </g>
  <path class="cls-6" d="M598.1,698.9h-125v-158.9h125v158.9ZM482.1,689.7h106.8v-140.7h-106.8v140.7Z"/>
  <path class="cls-11" d="M644.2,515.4c-10.3,0-20.7-1.2-30.9-3.8-34.4-8.5-63-30.2-80.5-60.9-17.6-30.7-21.7-66.4-11.5-100.4,18.7-62.8,83.7-102,148-89.1,34.8,7,64.4,27.3,83.4,57.1,19,29.9,24.7,65.3,16.2,99.7-.6,2.5-1.3,5-2.1,7.6-.9,2.7-.6,5.7.8,8.1l33.1,57c1.7,2.9,1.5,6.3-.4,9-1.9,2.7-5.2,4-8.4,3.3l-64.7-13.1c-2.8-.6-5.8,0-8.1,1.7-22,15.7-48.1,23.9-74.6,23.9ZM644.6,267.8c-51.6,0-99.4,34.2-114.6,85.1-9.4,31.6-5.6,64.7,10.7,93.3,16.3,28.6,42.9,48.7,74.8,56.6,33.8,8.4,69.6,1.6,98-18.7,4.4-3.2,10-4.4,15.3-3.3l63,12.8-32.1-55.4c-2.7-4.6-3.3-10.2-1.6-15.4.7-2.3,1.4-4.7,2-7,7.9-31.9,2.6-64.8-15-92.6-17.6-27.8-45.1-46.6-77.5-53.1-7.6-1.5-15.3-2.3-22.9-2.3Z"/>
  <g>
    <polygon class="cls-6" points="1445 600.7 1438.6 594.2 1457.5 575.3 1373.9 491.7 1355 510.7 1348.5 504.2 1373.9 478.8 1470.4 575.3 1445 600.7"/>
    <polygon class="cls-6" points="1333.7 712 1237.3 615.5 1262.6 590.1 1269.1 596.5 1250.2 615.5 1333.7 699.1 1352.7 680.1 1359.1 686.6 1333.7 712"/>
  </g>
  <g class="cls-15">
    <circle class="cls-11" cx="940.6" cy="406.6" r="14.6" transform="translate(-12 784.2) rotate(-45)"/>
  </g>
  <circle class="cls-8" cx="952.2" cy="416.6" r="7.3"/>
  <path class="cls-6" d="M1547,714l-6.9-13.9c6.9-3.4,11.2-10.4,11.2-18.1h15.6c0,13.7-7.6,26-19.9,32.1ZM1509.4,710.4c-9-6.8-14.1-17.2-14.1-28.5,0-2.3.2-4.5.6-6.8l15.3,2.9c-.2,1.3-.4,2.6-.4,3.8,0,6.4,2.9,12.2,8,16.1l-9.4,12.4ZM1546.1,668.5c-3.8-4.3-9.3-6.7-15.1-6.7-1.8,0-3.7.2-5.4.7l-4.1-15c3.1-.9,6.3-1.3,9.5-1.3,10.2,0,19.9,4.3,26.7,11.9l-11.6,10.4Z"/>
  <path class="cls-11" d="M1708,1000.2c-3-4-6.4-7.4-10.2-10.3,0,0,.1.1.2.2,16.3,22,11.6,53-10.4,69.2-1,.7-1.9,1.4-2.9,2,5.2,9.6,2.6,21.8-6.3,28.5l-50.4,37.3c-6.9,5.1-15.9,5.6-23.1,2,.6,1.2,1.2,2.3,2,3.4h0c7.3,9.8,21.3,11.9,31.1,4.7l50.4-37.3c9-6.6,11.5-18.9,6.3-28.5,1-.6,2-1.3,2.9-2,22-16.3,26.6-47.2,10.4-69.2Z"/>
  <path class="cls-6" d="M952.2,881.4l-32.6-56.5,7.9-4.6,24.7,42.8,25.3-43.8,7.9,4.6-33.2,57.5ZM904.7,799.1l-23.6-40.9h55.7v9.1h-39.8l15.7,27.2-7.9,4.6ZM1000.3,798.1l-7.9-4.6,15.1-26.2h-41v-9.1h56.8l-23.1,39.9Z"/>
  <g>
    <polygon class="cls-11" points="1482.2 1162.6 1463.9 1162.6 1463.9 1153.5 1473.1 1153.5 1473.1 1144.4 1482.2 1144.4 1482.2 1162.6"/>
    <rect class="cls-11" x="1430.5" y="1153.5" width="16.7" height="9.1"/>
    <polygon class="cls-11" points="1413.8 1162.6 1395.5 1162.6 1395.5 1144.4 1404.7 1144.4 1404.7 1153.5 1413.8 1153.5 1413.8 1162.6"/>
    <polygon class="cls-11" points="1404.7 1119.2 1395.5 1119.2 1395.5 1100.9 1413.8 1100.9 1413.8 1110 1404.7 1110 1404.7 1119.2"/>
    <rect class="cls-11" x="1430.5" y="1100.9" width="16.7" height="9.1"/>
    <polygon class="cls-11" points="1482.2 1119.2 1473.1 1119.2 1473.1 1110 1463.9 1110 1463.9 1100.9 1482.2 1100.9 1482.2 1119.2"/>
  </g>
</svg>