<?xml version="1.0" encoding="UTF-8"?>
<svg id="Capa_1" data-name="Capa 1" xmlns="http://www.w3.org/2000/svg" version="1.1" viewBox="0 0 1920 1620">
  <defs>
    <style>
      .cls-1 {
        fill: #21323f;
      }

      .cls-1, .cls-2 {
        stroke-width: 0px;
      }

      .cls-2 {
        fill: #542fc2;
      }
    </style>
  </defs>
  <path class="cls-1" d="M1438.6,903.4c-24.4-29.8-69.5-34-99-9.3l-135.3,113.2c-6.9-31.5-35-55.1-68.5-55.1h-144.6c-21.1,0-41.5-6.7-57.5-18.9-66.1-50.2-162.5-41.8-219.1,18.9h-54.3v-19.6c0-7.8-6.4-14.2-14.2-14.2h-88.2c-7.8,0-14.2,6.4-14.2,14.2v112.9c0,7.8,6.4,14.2,14.2,14.2s14.2-6.4,14.2-14.2v-98.7h59.8v265.6h-59.8v-105c0-7.8-6.4-14.2-14.2-14.2s-14.2,6.4-14.2,14.2v119.2c0,7.8,6.4,14.2,14.2,14.2h88.2c7.8,0,14.2-6.4,14.2-14.2v-25.9h58.5l104.4,31.4c19.3,5.8,39.4,8.8,59.6,8.8h232c26.7,0,52.4-9.7,72.4-27.2l102.1-89.4c5.9-5.2,6.5-14.1,1.3-20-5.2-5.9-14.1-6.5-20-1.3l-102.1,89.4c-14.9,13-33.9,20.2-53.7,20.2h-232c-17.4,0-34.7-2.5-51.4-7.6l-106.4-32c-1.3-.4-2.7-.6-4.1-.6h-60.6v-191.7h60.6c4.1,0,8.1-1.8,10.8-4.9,45.5-52.9,129.1-62,184.8-19.7,20.9,15.9,47.4,24.6,74.6,24.6h144.6c52.1,0,55.8,83.9-.3,83.9h-182.8c-7.8,0-14.2,6.4-14.2,14.2s6.4,14.2,14.2,14.2h182.8c28.5,0,56.1-19.6,66.1-46.3l156.2-130.7c21.2-14.5,40.8-12.7,58.9,5.5,13.6,16.6,11.4,43.5-4.8,57.6l-94.7,82.9c-5.9,5.2-6.5,14.1-1.3,20,5.2,5.9,14.1,6.5,20,1.3l94.7-82.9c27.7-24.2,31.3-68.6,8-97h0Z"/>
  <path class="cls-1" d="M701.2,631.7l58.5,15.1c5.2,18.3,12.5,35.9,21.7,52.5l-30.7,52c-3.3,5.6-2.4,12.7,2.2,17.3l55.8,55.8c4.6,4.6,11.7,5.5,17.3,2.2l52-30.7c16.6,9.2,34.2,16.5,52.5,21.7l15.1,58.5c1.6,6.3,7.3,10.7,13.7,10.7h78.9c6.5,0,12.1-4.4,13.7-10.7l15.1-58.5c18.3-5.2,35.9-12.5,52.5-21.7l52,30.7c5.6,3.3,12.7,2.4,17.3-2.2l55.8-55.8c4.6-4.6,5.5-11.7,2.2-17.3l-30.7-52c9.2-16.6,16.5-34.2,21.7-52.5l58.5-15.1c6.3-1.6,10.7-7.3,10.7-13.7v-78.9c0-6.5-4.4-12.1-10.7-13.7l-58.5-15.1c-5.2-18.3-12.5-35.9-21.7-52.5l30.7-52c3.3-5.6,2.4-12.7-2.2-17.3l-55.8-55.8c-4.6-4.6-11.7-5.5-17.3-2.2l-52,30.7c-16.6-9.2-34.2-16.5-52.5-21.7l-15.1-58.5c-1.6-6.3-7.3-10.7-13.8-10.7h-78.9c-6.5,0-12.1,4.4-13.7,10.7l-15.1,58.5c-18.3,5.2-35.9,12.5-52.5,21.7l-52-30.7c-5.6-3.3-12.7-2.4-17.3,2.2l-55.8,55.8c-4.6,4.6-5.5,11.7-2.2,17.3l30.7,52c-9.2,16.6-16.5,34.2-21.7,52.5l-58.5,15.1c-6.3,1.6-10.7,7.3-10.7,13.7v78.9c0,6.5,4.4,12.1,10.7,13.7h0ZM719,550l55.9-14.4c5.1-1.3,9-5.3,10.2-10.3,5.3-21.3,13.7-41.6,25-60.3,2.7-4.5,2.7-10,0-14.5l-29.3-49.7,40.3-40.3,49.7,29.3c4.5,2.6,10.1,2.6,14.5,0,18.7-11.3,39-19.7,60.3-25,5.1-1.3,9-5.2,10.3-10.2l14.4-55.9h56.9l14.4,55.9c1.3,5.1,5.3,9,10.3,10.2,21.3,5.3,41.6,13.7,60.3,25,4.5,2.7,10,2.7,14.5,0l49.7-29.3,40.3,40.3-29.3,49.7c-2.7,4.5-2.6,10.1,0,14.5,11.3,18.7,19.7,39,25,60.3,1.3,5.1,5.2,9,10.2,10.3l55.9,14.4v56.9l-55.9,14.4c-5.1,1.3-9,5.3-10.2,10.3-5.3,21.3-13.7,41.6-25,60.3-2.7,4.5-2.7,10,0,14.5l29.3,49.7-40.3,40.3-49.7-29.3c-4.5-2.7-10.1-2.6-14.5,0-18.7,11.3-39,19.7-60.3,25-5.1,1.3-9,5.2-10.3,10.2l-14.4,55.9h-56.9l-14.4-55.9c-1.3-5.1-5.3-9-10.3-10.2-21.3-5.3-41.6-13.7-60.3-25-4.5-2.7-10-2.7-14.5,0l-49.7,29.3-40.3-40.3,29.3-49.7c2.6-4.5,2.6-10.1,0-14.5-11.3-18.7-19.7-39-25-60.3-1.3-5.1-5.2-9-10.2-10.3l-55.9-14.4v-56.9h0Z"/>
  <path class="cls-1" d="M998.8,768.6c45,0,88.6-16,122.9-45.2,33.9-28.8,56.8-68.6,64.4-112.1,1.4-7.7-3.8-15.1-11.5-16.4-7.7-1.4-15.1,3.8-16.4,11.5-13.6,77.5-80.6,133.7-159.3,133.7s-161.8-72.6-161.8-161.8,72.6-161.8,161.8-161.8,145.3,55.9,159.2,132.9c1.4,7.7,8.8,12.8,16.5,11.5,7.7-1.4,12.8-8.8,11.5-16.5-16.3-90.5-95-156.3-187.1-156.3s-190.2,85.3-190.2,190.2c0,104.9,85.3,190.2,190.2,190.2Z"/>
  <path class="cls-2" d="M939.7,512.8c-5.5-5.6-14.5-5.7-20.1-.2l-58.8,57.6c-5.7,6.8-5.7,13.5,0,20.3l58.8,57.6c6.7,5.5,13.4,5.4,20.1-.2,5.5-5.6,5.4-14.6-.2-20.1l-48.4-47.4,48.5-47.5c5.6-5.5,5.7-14.5.2-20.1Z"/>
  <path class="cls-2" d="M1005.3,516.9l-39.9,116.4c-2.5,7.4,1.4,15.5,8.8,18,7.2,2.3,13.2-.6,18-8.8l39.9-116.4c2.5-7.4-1.4-15.5-8.8-18-7.4-2.5-15.5,1.4-18,8.8h0Z"/>
  <path class="cls-2" d="M1058,647.9c6.7,5.6,13.4,5.6,20.1.1l58.8-58.2c5.6-6.7,5.6-13.5,0-20.2l-58.8-58.2c-5.6-5.5-14.6-5.5-20.1.1-5.5,5.6-5.5,14.6.1,20.1l48.6,48.1-48.6,48.1c-5.6,5.5-5.6,14.5-.1,20.1h0Z"/>
</svg>