<?xml version="1.0" encoding="UTF-8"?>
<svg id="Capa_1" data-name="Capa 1" xmlns="http://www.w3.org/2000/svg" version="1.1" viewBox="0 0 1920 1620">
  <defs>
    <style>
      .cls-1 {
        fill: #c9daeb;
      }

      .cls-1, .cls-2, .cls-3, .cls-4, .cls-5, .cls-6, .cls-7, .cls-8, .cls-9, .cls-10, .cls-11, .cls-12, .cls-13, .cls-14, .cls-15, .cls-16 {
        stroke-width: 0px;
      }

      .cls-2 {
        fill: #193f79;
      }

      .cls-3 {
        fill: #7f2a0f;
      }

      .cls-4 {
        fill: #ffa05c;
      }

      .cls-5 {
        fill: #03245b;
      }

      .cls-6 {
        fill: #21323f;
      }

      .cls-7 {
        fill: #542fc2;
      }

      .cls-8 {
        fill: #ff3365;
      }

      .cls-9 {
        fill: #6697da;
      }

      .cls-10 {
        fill: #0caafd;
      }

      .cls-11 {
        fill: #edf8ff;
      }

      .cls-12 {
        fill: #fff;
      }

      .cls-13 {
        fill: #bac0c8;
      }

      .cls-14 {
        fill: #c6bcb8;
      }

      .cls-15 {
        fill: #4f82bf;
      }

      .cls-16 {
        fill: #647589;
      }
    </style>
  </defs>
  <ellipse class="cls-7" cx="945.3" cy="809.9" rx="721.7" ry="724.8"/>
  <circle class="cls-12" cx="942.8" cy="810.1" r="685.5"/>
  <circle class="cls-10" cx="946.9" cy="806.1" r="689.6" transform="translate(-292.7 905.6) rotate(-45)"/>
  <path class="cls-11" d="M586.9,473.8v688.7h742.1V455.6c0-38.5-31.5-69.9-69.9-69.9H400.3c-21.4,27.8-40.7,57.2-57.7,88.1h244.3Z"/>
  <g>
    <path class="cls-1" d="M1329,1162.4V491.4c-7-32-38.2-56.4-75.5-56.4H365.7c-8.1,12.7-15.9,25.5-23.2,38.7-8.8,16.1-17,32.5-24.6,49.3h195.6v134.5c10.6,1.5,18.9,10.7,18.9,21.7s-8.3,20.2-18.9,21.7v461.4h815.4Z"/>
    <path class="cls-1" d="M532.5,679.3c0-11.1-8.3-20.2-18.9-21.7v43.5c10.6-1.5,18.9-10.7,18.9-21.7Z"/>
    <path class="cls-1" d="M1329,491.4v671h-815.4v49.3h816.9V505c0-4.6-.5-9.2-1.5-13.5Z"/>
  </g>
  <path class="cls-9" d="M396.6,797.1v251.2c0,22.7-18.5,41.2-41.2,41.2h-37.4c11.4,25.1,24.2,49.5,38.3,72.9h230.5V473.8h-244.3c-31.3,56.8-54.8,118.4-69.1,183.5h237c12.1,0,22.1,9.9,22.1,22.1s-9.9,22.1-22.1,22.1h-245.3c-2.7,17.9-4.7,36.1-6.1,54.5h96.3c22.7,0,41.2,18.5,41.2,41.2Z"/>
  <path class="cls-2" d="M1171.7,473.8h-584.8v804.9h584.8c38.5,0,69.9-31.5,69.9-69.9v-665c0-38.5-31.5-69.9-69.9-69.9Z"/>
  <path class="cls-12" d="M803.8,607h-113.8c-12.1,0-22.1-9.9-22.1-22.1h0c0-12.1,9.9-22.1,22.1-22.1h113.8c12.1,0,22.1,9.9,22.1,22.1h0c0,12.1-9.9,22.1-22.1,22.1Z"/>
  <path class="cls-12" d="M479.7,607h-113.8c-12.1,0-22.1-9.9-22.1-22.1h0c0-12.1,9.9-22.1,22.1-22.1h113.8c12.1,0,22.1,9.9,22.1,22.1h0c0,12.1-9.9,22.1-22.1,22.1Z"/>
  <path class="cls-10" d="M972.7,607h-65.3c-12.1,0-22.1-9.9-22.1-22.1h0c0-12.1,9.9-22.1,22.1-22.1h65.3c12.1,0,22.1,9.9,22.1,22.1h0c0,12.1-9.9,22.1-22.1,22.1Z"/>
  <path class="cls-10" d="M1069,607h0c-12.1,0-22.1-9.9-22.1-22.1h0c0-12.1,9.9-22.1,22.1-22.1h0c12.1,0,22.1,9.9,22.1,22.1h0c0,12.1-9.9,22.1-22.1,22.1Z"/>
  <path class="cls-8" d="M1015.8,703.5h113.8c12.1,0,22.1-9.9,22.1-22.1h0c0-12.1-9.9-22.1-22.1-22.1h-113.8c-12.1,0-22.1,9.9-22.1,22.1h0c0,12.1,9.9,22.1,22.1,22.1Z"/>
  <path class="cls-12" d="M846.9,703.5h65.3c12.1,0,22.1-9.9,22.1-22.1h0c0-12.1-9.9-22.1-22.1-22.1h-65.3c-12.1,0-22.1,9.9-22.1,22.1h0c0,12.1,9.9,22.1,22.1,22.1Z"/>
  <path class="cls-8" d="M750.6,703.5h0c12.1,0,22.1-9.9,22.1-22.1h0c0-12.1-9.9-22.1-22.1-22.1h0c-12.1,0-22.1,9.9-22.1,22.1h0c0,12.1,9.9,22.1,22.1,22.1Z"/>
  <rect class="cls-12" x="668" y="755.9" width="296.3" height="44.1" rx="3.8" ry="3.8"/>
  <rect class="cls-10" x="1014.3" y="755.9" width="109.4" height="44.1" rx="3.8" ry="3.8"/>
  <path class="cls-10" d="M869.9,896.5h-65.3c-12.1,0-22.1-9.9-22.1-22.1h0c0-12.1,9.9-22.1,22.1-22.1h65.3c12.1,0,22.1,9.9,22.1,22.1h0c0,12.1-9.9,22.1-22.1,22.1Z"/>
  <path class="cls-10" d="M966.2,896.5h0c-12.1,0-22.1-9.9-22.1-22.1h0c0-12.1,9.9-22.1,22.1-22.1h0c12.1,0,22.1,9.9,22.1,22.1h0c0,12.1-9.9,22.1-22.1,22.1Z"/>
  <path class="cls-10" d="M1072.7,896.5h0c-12.1,0-22.1-9.9-22.1-22.1h0c0-12.1,9.9-22.1,22.1-22.1h0c12.1,0,22.1,9.9,22.1,22.1h0c0,12.1-9.9,22.1-22.1,22.1Z"/>
  <path class="cls-12" d="M904.2,993h-113.8c-12.1,0-22.1-9.9-22.1-22.1h0c0-12.1,9.9-22.1,22.1-22.1h113.8c12.1,0,22.1,9.9,22.1,22.1h0c0,12.1-9.9,22.1-22.1,22.1Z"/>
  <path class="cls-10" d="M1073,993h-65.3c-12.1,0-22.1-9.9-22.1-22.1h0c0-12.1,9.9-22.1,22.1-22.1h65.3c12.1,0,22.1,9.9,22.1,22.1h0c0,12.1-9.9,22.1-22.1,22.1Z"/>
  <path class="cls-12" d="M803.8,1089.5h-113.8c-12.1,0-22.1-9.9-22.1-22.1h0c0-12.1,9.9-22.1,22.1-22.1h113.8c12.1,0,22.1,9.9,22.1,22.1h0c0,12.1-9.9,22.1-22.1,22.1Z"/>
  <path class="cls-8" d="M972.7,1089.5h-65.3c-12.1,0-22.1-9.9-22.1-22.1h0c0-12.1,9.9-22.1,22.1-22.1h65.3c12.1,0,22.1,9.9,22.1,22.1h0c0,12.1-9.9,22.1-22.1,22.1Z"/>
  <path class="cls-8" d="M1069,1089.5h0c-12.1,0-22.1-9.9-22.1-22.1h0c0-12.1,9.9-22.1,22.1-22.1h0c12.1,0,22.1,9.9,22.1,22.1h0c0,12.1-9.9,22.1-22.1,22.1Z"/>
  <path class="cls-3" d="M946.9,1495.6c145.9,0,281.1-45.3,392.6-122.6h-785.1c111.4,77.3,246.7,122.6,392.6,122.6Z"/>
  <path class="cls-8" d="M1401.8,939.7v222.7h59.1c0,22.6-6.5,43.7-17.6,61.6-10.3,16.4-24.6,30.1-41.5,39.7v14.4h47.8c100.8-107.4,167.7-247,183.3-401.8h-167.6c-35.1,0-63.5,28.4-63.5,63.5Z"/>
  <path class="cls-4" d="M1401.8,1278h-45.8c-3.7.4-7.5.6-11.3.6H444.7c33.1,35.1,69.8,66.8,109.6,94.4h785.1c39.8-27.6,76.5-59.2,109.6-94.4.2-.2.4-.4.6-.6h-47.8Z"/>
  <path class="cls-14" d="M1259.1,1278.6h85.6c3.8,0,7.6-.2,11.3-.6h-88.2c-2.9.4-5.8.6-8.7.6Z"/>
  <path class="cls-14" d="M1267.8,1278h-680.9l-142.5.2c.1.1.3.3.4.4h814.3c3,0,5.9-.2,8.7-.6Z"/>
  <path class="cls-14" d="M444.2,1278c0,0,0,.1.1.2l142.5-.2h-142.7Z"/>
  <path class="cls-13" d="M1401.8,1224h-814.9s-188.5,0-188.5,0c14.3,18.8,29.6,36.9,45.8,54.1h911.8c16.5-1.6,32-6.6,45.8-14.4,16.9-9.6,31.2-23.2,41.5-39.7h-41.5Z"/>
  <path class="cls-1" d="M1401.8,1162.4H356.4c12.9,21.3,26.9,41.8,42,61.6h188.5s740.4,0,740.4,0h116c11.2-17.9,17.6-39,17.6-61.6h-59.1Z"/>
  <path class="cls-12" d="M532.5,679.3c0-12.1-9.9-22.1-22.1-22.1h-237c-3.2,14.5-6,29.2-8.3,44.1h245.3c12.1,0,22.1-9.9,22.1-22.1Z"/>
  <path class="cls-12" d="M318.1,1089.5h37.4c22.7,0,41.2-18.5,41.2-41.2v-251.2c0-22.7-18.5-41.2-41.2-41.2h-96.3c-1.2,16.6-1.8,33.3-1.8,50.2,0,101,21.7,197,60.7,283.4Z"/>
  <circle class="cls-12" cx="491.7" cy="964.2" r="48.5"/>
  <circle class="cls-12" cx="491.7" cy="806.1" r="48.5" transform="translate(-426 583.8) rotate(-45)"/>
  <path class="cls-12" d="M1554.3,806.1s-217.6-78.7-73.8-261.3c3.9-3.9,90.8-93.2,35-188.2,66,0,221.4,149,38.8,300.7,0-3.7-101,78.7,0,148.8Z"/>
  <rect class="cls-16" x="1241.6" y="1120.5" width="88.9" height="41.9"/>
  <rect class="cls-5" x="586.9" y="1120.5" width="654.7" height="41.9"/>
  <path class="cls-15" d="M356.4,1162.4h230.5v-41.9h-253.8c7.3,14.2,15,28.2,23.3,41.9Z"/>
  <circle class="cls-6" cx="332.1" cy="456.4" r="42.6"/>
</svg>