<?xml version="1.0" encoding="UTF-8"?>
<svg id="Capa_1" data-name="Capa 1" xmlns="http://www.w3.org/2000/svg" version="1.1" viewBox="0 0 1920 1620">
  <defs>
    <style>
      .cls-1 {
        fill: #3867a0;
      }

      .cls-1, .cls-2, .cls-3, .cls-4, .cls-5, .cls-6, .cls-7, .cls-8, .cls-9, .cls-10, .cls-11, .cls-12, .cls-13, .cls-14, .cls-15, .cls-16, .cls-17, .cls-18, .cls-19, .cls-20, .cls-21, .cls-22, .cls-23, .cls-24, .cls-25, .cls-26, .cls-27 {
        stroke-width: 0px;
      }

      .cls-2 {
        fill: #bcb0a6;
      }

      .cls-3 {
        fill: #edf9fb;
      }

      .cls-4 {
        fill: #365263;
      }

      .cls-5 {
        fill: #edefeb;
      }

      .cls-6 {
        fill: #9cdde0;
      }

      .cls-7 {
        fill: #c6faff;
      }

      .cls-8 {
        fill: #dcd5cd;
      }

      .cls-9 {
        fill: #21323f;
      }

      .cls-10 {
        fill: #548ac1;
      }

      .cls-11 {
        fill: #542fc2;
      }

      .cls-12 {
        fill: #072c60;
      }

      .cls-13 {
        fill: #ff3365;
      }

      .cls-14 {
        fill: #a73d18;
      }

      .cls-15 {
        fill: #c6e3f7;
      }

      .cls-16 {
        fill: #ee1822;
      }

      .cls-17 {
        fill: #7f2509;
      }

      .cls-18 {
        fill: #0caafd;
      }

      .cls-19 {
        fill: #88abbf;
      }

      .cls-20 {
        fill: #c2d6d8;
      }

      .cls-21 {
        fill: #056b99;
      }

      .cls-22 {
        fill: #deedef;
      }

      .cls-23 {
        fill: #265496;
      }

      .cls-24 {
        fill: #fff;
      }

      .cls-25 {
        fill: #ccc2bb;
      }

      .cls-26 {
        fill: #6aa4de;
      }

      .cls-27 {
        fill: #ff99b6;
      }
    </style>
  </defs>
  <ellipse class="cls-11" cx="916.4" cy="843.3" rx="648.7" ry="651.4"/>
  <circle class="cls-21" cx="915.6" cy="845.9" r="652.1" transform="translate(-330 895.2) rotate(-45)"/>
  <circle class="cls-18" cx="915.6" cy="845.9" r="582" transform="translate(-330 895.2) rotate(-45)"/>
  <path class="cls-21" d="M485.5,545.1h822.2c5.8,0,10.6,4.7,10.6,10.6v513.9H475v-513.9c0-5.8,4.7-10.6,10.6-10.6Z"/>
  <path class="cls-21" d="M1304.5,1146.5H469.3c-40,0-72.5-32.5-72.5-72.5h980.2c0,40-32.5,72.5-72.5,72.5Z"/>
  <path class="cls-23" d="M611,382.8l-89.6-56.3c-128.8,97.9-220,242.5-248.5,408.6l91,57.2c16.5-171.2,110.8-319.6,247.1-409.5Z"/>
  <path class="cls-21" d="M337.8,775.8l252.7,158.7c28.4,17.9,66,9.3,83.9-19.1l189.7-301.9c17.9-28.4,9.3-66-19.1-83.9l-259.9-163.3c-136.3,89.9-230.7,238.3-247.1,409.5Z"/>
  <rect class="cls-8" x="291.7" y="222.6" width="478.2" height="648.1" rx="11" ry="11" transform="translate(-220.1 676.2) rotate(-55.6)"/>
  <path class="cls-25" d="M541.6,343.1l-25.6,37.5c-3.9,5.8-11.9,7.3-17.6,3.3h0c-5.8-3.9-7.3-11.9-3.3-17.6l25.6-37.5c3.9-5.8,11.9-7.3,17.6-3.3h0c5.8,3.9,7.3,11.9,3.3,17.6Z"/>
  <path class="cls-25" d="M641.4,411.3l-25.6,37.5c-3.9,5.8-11.9,7.3-17.6,3.3h0c-5.8-3.9-7.3-11.9-3.3-17.6l25.6-37.5c3.9-5.8,11.9-7.3,17.6-3.3h0c5.8,3.9,7.3,11.9,3.3,17.6Z"/>
  <path class="cls-25" d="M741.2,479.6l-25.6,37.5c-3.9,5.8-11.9,7.3-17.6,3.3h0c-5.8-3.9-7.3-11.9-3.3-17.6l25.6-37.5c3.9-5.8,11.9-7.3,17.6-3.3h0c5.8,3.9,7.3,11.9,3.3,17.6Z"/>
  <path class="cls-25" d="M791.1,513.7l-25.6,37.5c-3.9,5.8-11.9,7.3-17.6,3.3h0c-5.8-3.9-7.3-11.9-3.3-17.6l25.6-37.5c3.9-5.8,11.9-7.3,17.6-3.3h0c5.8,3.9,7.3,11.9,3.3,17.6Z"/>
  <g>
    <path class="cls-8" d="M909.3,552.8c1.6-21-7.7-42.2-26.3-54.9l-42.5-29.1,66.4,80.8c.9,1,1.6,2.1,2.4,3.2Z"/>
    <path class="cls-8" d="M587.9,875.4l25.2,17.2c27.7,19,65.6,11.9,84.6-15.9l119.2-174.3-193.6,159.3c-10.4,8.6-22.8,13-35.3,13.7Z"/>
    <path class="cls-25" d="M537.7,853.3c12.8,15.5,31.6,23,50.3,22l-73.5-50.3,23.2,28.2Z"/>
    <path class="cls-25" d="M909.3,552.8c-.8,10.3-4.1,20.5-10.4,29.7l-82,119.9,81.7-67.2c24.9-20.5,29.3-56.6,10.7-82.4Z"/>
    <path class="cls-25" d="M909.3,552.8c-.8-1.1-1.5-2.2-2.4-3.2l-66.4-80.8L448.5,200.7c-9-6.2-19.1-9.5-29.3-10.4l-85.2,70.1-128.9,188.5,309.4,376.1,73.5,50.3c12.5-.7,24.9-5.1,35.3-13.7l193.6-159.3,82-119.9c6.2-9.1,9.6-19.4,10.4-29.7ZM541.6,343.1l-25.6,37.5c-3.9,5.8-11.9,7.3-17.6,3.3-5.8-3.9-7.3-11.9-3.3-17.6l25.6-37.5c3.9-5.8,11.9-7.3,17.6-3.3,5.8,3.9,7.3,11.9,3.3,17.6ZM641.4,411.3l-25.6,37.5c-3.9,5.8-11.9,7.3-17.6,3.3-5.8-3.9-7.3-11.9-3.3-17.6l25.6-37.5c3.9-5.8,11.9-7.3,17.6-3.3,5.8,3.9,7.3,11.9,3.3,17.6ZM715.5,517.1c-3.9,5.8-11.9,7.3-17.6,3.3-5.8-3.9-7.3-11.9-3.3-17.6l25.6-37.5c3.9-5.8,11.9-7.3,17.6-3.3,5.8,3.9,7.3,11.9,3.3,17.6l-25.6,37.5ZM791.1,513.7l-25.6,37.5c-3.9,5.8-11.9,7.3-17.6,3.3h0c-5.8-3.9-7.3-11.9-3.3-17.6l25.6-37.5c3.9-5.8,11.9-7.3,17.6-3.3,5.8,3.9,7.3,11.9,3.3,17.6Z"/>
    <path class="cls-25" d="M538.3,325.5c-5.8-3.9-13.7-2.4-17.6,3.3l-25.6,37.5c-3.9,5.8-2.4,13.7,3.3,17.6,5.8,3.9,13.7,2.5,17.6-3.3l25.6-37.5c3.9-5.8,2.5-13.7-3.3-17.6Z"/>
    <path class="cls-25" d="M638.1,393.7c-5.8-3.9-13.7-2.4-17.6,3.3l-25.6,37.5c-3.9,5.8-2.5,13.7,3.3,17.6,5.8,3.9,13.7,2.5,17.6-3.3l25.6-37.5c3.9-5.8,2.5-13.7-3.3-17.6Z"/>
    <path class="cls-25" d="M737.9,461.9c-5.8-3.9-13.7-2.5-17.6,3.3l-25.6,37.5c-3.9,5.8-2.5,13.7,3.3,17.6,5.8,3.9,13.7,2.5,17.6-3.3l25.6-37.5c3.9-5.8,2.5-13.7-3.3-17.6Z"/>
    <path class="cls-25" d="M787.8,496c-5.8-3.9-13.7-2.4-17.6,3.3l-25.6,37.5c-3.9,5.8-2.5,13.7,3.3,17.6h0c5.8,3.9,13.7,2.5,17.6-3.3l25.6-37.5c3.9-5.8,2.4-13.7-3.3-17.6Z"/>
  </g>
  <g>
    <rect class="cls-5" x="354" y="171.4" width="478.2" height="648.1" rx="11" ry="11" transform="translate(-179.7 489.6) rotate(-39.4)"/>
    <rect class="cls-25" x="259.8" y="273.3" width="385.8" height="98.3" rx="3.7" ry="3.7" transform="translate(-101.7 361) rotate(-39.4)"/>
    <path class="cls-25" d="M583.8,365.8l-196,161.3c-5.4,4.4-13.4,3.7-17.9-1.7h0c-4.4-5.4-3.7-13.4,1.7-17.9l196-161.3c5.4-4.4,13.4-3.7,17.9,1.7h0c4.4,5.4,3.7,13.4-1.7,17.9Z"/>
    <path class="cls-25" d="M660.2,303l-35.1,28.9c-5.4,4.4-13.4,3.7-17.9-1.7h0c-4.4-5.4-3.7-13.4,1.7-17.9l35.1-28.9c5.4-4.4,13.4-3.7,17.9,1.7h0c4.4,5.4,3.7,13.4-1.7,17.9Z"/>
    <path class="cls-25" d="M502.6,510.9l196-161.3c5.4-4.4,6.2-12.5,1.7-17.9h0c-4.4-5.4-12.5-6.2-17.9-1.7l-196,161.3c-5.4,4.4-6.2,12.5-1.7,17.9h0c4.4,5.4,12.5,6.2,17.9,1.7Z"/>
    <path class="cls-25" d="M426.2,573.8l35.1-28.9c5.4-4.4,6.2-12.5,1.7-17.9h0c-4.4-5.4-12.5-6.2-17.9-1.7l-35.1,28.9c-5.4,4.4-6.2,12.5-1.7,17.9h0c4.4,5.4,12.5,6.2,17.9,1.7Z"/>
    <path class="cls-25" d="M660.6,459.2l-196,161.3c-5.4,4.4-13.4,3.7-17.9-1.7h0c-4.4-5.4-3.7-13.4,1.7-17.9l196-161.3c5.4-4.4,13.4-3.7,17.9,1.7h0c4.4,5.4,3.7,13.4-1.7,17.9Z"/>
    <path class="cls-25" d="M737,396.4l-35.1,28.9c-5.4,4.4-13.4,3.7-17.9-1.7h0c-4.4-5.4-3.7-13.4,1.7-17.9l35.1-28.9c5.4-4.4,13.4-3.7,17.9,1.7h0c4.4,5.4,3.7,13.4-1.7,17.9Z"/>
    <path class="cls-25" d="M699,505.9l-196,161.3c-5.4,4.4-13.4,3.7-17.9-1.7h0c-4.4-5.4-3.7-13.4,1.7-17.9l196-161.3c5.4-4.4,13.4-3.7,17.9,1.7h0c4.4,5.4,3.7,13.4-1.7,17.9Z"/>
    <path class="cls-25" d="M813.8,489.7l-35.1,28.9c-5.4,4.4-13.4,3.7-17.9-1.7h0c-4.4-5.4-3.7-13.4,1.7-17.9l35.1-28.9c5.4-4.4,13.4-3.7,17.9,1.7h0c4.4,5.4,3.7,13.4-1.7,17.9Z"/>
  </g>
  <path class="cls-25" d="M635.5,892.9l307.4-226.5c29-21.3,33.1-59.7,9.3-85.6l-44.8-48.7h-363.7c-35.9,0-65,26.1-65,58.2l-1.4,209.4,31.2,21.4,31.6,53.5c23.8,25.9,66.4,39.6,95.4,18.2Z"/>
  <path class="cls-22" d="M517.7,530.1h822.2c5.8,0,10.6,4.7,10.6,10.6v533.3H507.1v-533.3c0-5.8,4.7-10.6,10.6-10.6Z"/>
  <path class="cls-4" d="M562.1,570.5h733.4c4,0,7.3,3.3,7.3,7.3v496.2h-747.9v-496.2c0-4,3.3-7.3,7.3-7.3Z"/>
  <path class="cls-9" d="M562.1,598.5h733.4c4,0,7.3,3.3,7.3,7.3v496.2h-747.9v-496.2c0-4,3.3-7.3,7.3-7.3Z"/>
  <path class="cls-3" d="M1336.7,1146.5H501.4c-40,0-72.5-32.5-72.5-72.5h980.2c0,40-32.5,72.5-72.5,72.5Z"/>
  <path class="cls-21" d="M724.6,1304h303v122.4h-303c-6.1,0-11.1-5-11.1-11.1v-100.2c0-6.1,5-11.1,11.1-11.1Z"/>
  <path class="cls-24" d="M775.6,1304h303v122.4h-303c-6.1,0-11.1-5-11.1-11.1v-100.2c0-6.1,5-11.1,11.1-11.1Z"/>
  <path class="cls-8" d="M1347.9,1304h-277.6c-33.8,0-61.2,27.4-61.2,61.2s27.4,61.2,61.2,61.2h142.8c59.5-30.6,113.7-70,160.8-116.6-7.9-3.7-16.7-5.8-25.9-5.8Z"/>
  <path class="cls-22" d="M1302.7,1074h47.7v-328.5c-16.4,0-32.4-2-47.7-5.7v334.2Z"/>
  <path class="cls-21" d="M1500.4,678.3c-35-131.9-110.3-247.5-211.9-332.6-34,10.5-64.2,29.7-88.1,55,.2.1.4.3.6.4-32,34.1-52.5,79.1-55.1,128.9h145.9c32.2,0,58.2,26.1,58.2,58.2v157.1c30.8,0,64.3-10.6,64.2-10.7,33.4-11.3,63-30.8,86.2-56.4Z"/>
  <path class="cls-20" d="M1148,570.5h114.4c22.2,0,40.2,18,40.2,40.2v129.1c15.3,3.7,31.3,5.7,47.7,5.7v-157.1c0-32.2-26.1-58.2-58.2-58.2h-145.9c-.2,3.6-.3,7.2-.3,10.9,0,10,.8,19.8,2.1,29.5Z"/>
  <path class="cls-12" d="M1302.6,739.8v-129.1c0-22.2-18-40.2-40.2-40.2h-114.4c12,83.1,74,150,154.6,169.3Z"/>
  <path class="cls-19" d="M891.5,1117.9h55c26.1,0,47.7-19,51.9-43.9h-158.7c4.2,24.9,25.8,43.9,51.9,43.9Z"/>
  <path class="cls-13" d="M1722.8,824.6l-278.8-181.5,45-69.4,278.8,181.5c16.4,10.7,19.6,34.9,7.2,54.1h0c-12.4,19.2-35.8,26.1-52.2,15.4Z"/>
  <circle class="cls-13" cx="1323.3" cy="513.4" r="204.4"/>
  <rect class="cls-4" x="552.8" y="1025.9" width="747.9" height="48.1"/>
  <circle class="cls-7" cx="1323.3" cy="513.4" r="147.2"/>
  <path class="cls-6" d="M1323.3,420.9c71.9,0,131.8,51.6,144.6,119.8,1.7-8.9,2.6-18,2.6-27.3,0-81.3-65.9-147.2-147.2-147.2s-147.2,65.9-147.2,147.2.9,18.5,2.6,27.3c12.8-68.2,72.7-119.8,144.6-119.8Z"/>
  <path class="cls-24" d="M1316.3,585c-45.2-5.5-78.9-42.5-81.7-86.3-1.7,5.4-3,11.1-3.7,17-6.2,51.1,30.2,97.5,81.2,103.7,51.1,6.2,97.5-30.2,103.7-81.2.7-5.9.8-11.7.5-17.4-13.3,41.9-54.8,69.7-100,64.2Z"/>
  <path class="cls-22" d="M1731.9,856.9l-247.2-160.9,67.4-103.9,247.2,160.9c16.4,10.7,19.6,34.9,7.2,54.1l-22.4,34.5c-12.4,19.2-35.8,26.1-52.2,15.4Z"/>
  <path class="cls-16" d="M1784.1,841.5l22.4-34.5c12.4-19.2,9.2-43.4-7.2-54.1l-3.4-2.2-67.4,103.9,3.4,2.2c16.4,10.7,39.8,3.8,52.2-15.4Z"/>
  <g>
    <path class="cls-26" d="M659.8,1037.3c0,20.3,16.4,36.7,36.7,36.7h455.1c20.3,0,36.7-16.4,36.7-36.7v-319.5h-528.5v319.5Z"/>
    <path class="cls-10" d="M1151.6,679.1h-455.1c-20.3,0-36.7,16.4-36.7,36.7v1.9h528.5v-1.9c0-20.3-16.4-36.7-36.7-36.7Z"/>
  </g>
  <g>
    <path class="cls-16" d="M1809.8,801c-.4.9-.8,1.7-1.3,2.6.5-.9.9-1.7,1.3-2.6Z"/>
    <path class="cls-27" d="M1807.9,800.3l4.6-7.2c-.3,1.2-.7,2.4-1.1,3.5,5.9-16.8,1.3-34.9-12.2-43.7l-3.4-2.2-41.5,64.1,1.4.9c16.4,10.7,39.8,3.8,52.2-15.4Z"/>
    <path class="cls-16" d="M1811.5,796.8c-.4,1.1-.8,2.3-1.3,3.4.5-1.1.9-2.2,1.3-3.4Z"/>
    <path class="cls-20" d="M1811.5,796.7s0,0,0,0c0,0,0,0,0,0Z"/>
    <path class="cls-20" d="M1810.2,800.1c-.1.3-.3.6-.4.8.1-.3.3-.6.4-.8Z"/>
    <path class="cls-20" d="M1806.5,807c.7-1.1,1.4-2.3,2-3.5-.6,1.2-1.3,2.3-2,3.5Z"/>
    <polygon class="cls-20" points="1754.3 814.8 1510.5 656.1 1484.7 696 1731.9 856.9 1728.5 854.7 1754.3 814.8"/>
    <path class="cls-13" d="M1809.8,801c.1-.3.3-.6.4-.8.5-1.1.9-2.2,1.3-3.4,0,0,0,0,0,0,.4-1.2.8-2.3,1.1-3.5l-4.6,7.2c-12.4,19.2-35.8,26.1-52.2,15.4l-1.4-.9-25.8,39.9,3.4,2.2c16.4,10.7,39.8,3.8,52.2-15.4l22.4-34.5c.7-1.1,1.4-2.3,2-3.5.5-.9.9-1.7,1.3-2.6Z"/>
  </g>
  <rect class="cls-15" x="846.9" y="831.7" width="276.5" height="87.4" rx="2.8" ry="2.8"/>
  <path class="cls-15" d="M741.9,903.1c-19.3-6.4-29.7-27.4-23.3-46.7,6.4-19.3,27.4-29.7,46.7-23.3,19.3,6.4,29.7,27.4,23.3,46.7-6.4,19.3-27.4,29.7-46.7,23.3ZM758.2,854.4c-7.5-2.5-15.7,1.6-18.2,9.1-2.5,7.5,1.6,15.7,9.1,18.2,7.5,2.5,15.7-1.6,18.2-9.1,2.5-7.5-1.6-15.7-9.1-18.2Z"/>
  <path class="cls-15" d="M793.3,917l-24.8-20.8,14.5-17.2,24.8,20.8c4.8,4,5.4,11.1,1.4,15.8h0c-4,4.8-11.1,5.4-15.8,1.4Z"/>
  <path class="cls-21" d="M624.2,1426.4v-201.8h-64.3v137.5c25.1,25.1,39.2,39.2,64.3,64.3h0Z"/>
  <g>
    <path class="cls-14" d="M336.1,1145.2c14.3,27.7,30.5,54.2,48.5,79.3h1062c18-25.2,34.2-51.7,48.5-79.3H336.1Z"/>
    <path class="cls-17" d="M674.5,1440.6v-216.1h-64.3v197.6c2.7,1.4,5.3,2.8,8,4.2l56.3,14.2Z"/>
    <path class="cls-17" d="M1070.3,1426.4h-452.1c18.3,9.4,37.1,17.9,56.3,25.6,74.6,29.7,156,46.1,241.1,46.1s208.3-25.9,297.5-71.6h-142.8Z"/>
    <path class="cls-8" d="M1070.3,1304c-20.9,0-39.3,10.5-50.3,26.4h332.1c7.4-6.7,14.7-13.5,21.8-20.5-7.9-3.7-16.6-5.9-25.9-5.9h-277.6Z"/>
    <path class="cls-8" d="M1254.8,1402.9h-232.6c11.2,14.2,28.6,23.4,48.1,23.4h142.8c14.2-7.3,28.1-15.1,41.7-23.4Z"/>
    <path class="cls-2" d="M1048.2,1344.1h0c0,7.6,6.2,13.8,13.8,13.8h257.5c11.2-8.8,22.1-18,32.6-27.6h-290.1c-7.6,0-13.8,6.2-13.8,13.8Z"/>
    <path class="cls-2" d="M1063.5,1402.9h191.3c14.2-8.7,28-17.9,41.5-27.6h-232.8c-8.2,0-14.5,7.1-13.7,15.2h0c.7,7,6.6,12.4,13.7,12.4Z"/>
  </g>
  <rect class="cls-20" x="507.1" y="1025.9" width="47.7" height="48.1"/>
  <rect class="cls-20" x="1302.7" y="1025.9" width="47.7" height="48.1"/>
  <path class="cls-1" d="M1188.3,1037.3v-11.4h-528.5v11.4c0,20.3,16.4,36.7,36.7,36.7h455.1c20.3,0,36.7-16.4,36.7-36.7Z"/>
</svg>