<?xml version="1.0" encoding="UTF-8"?>
<svg id="Capa_1" data-name="Capa 1" xmlns="http://www.w3.org/2000/svg" version="1.1" viewBox="0 0 1920 1620">
  <defs>
    <style>
      .cls-1 {
        fill: #21323f;
      }

      .cls-1, .cls-2 {
        stroke-width: 0px;
      }

      .cls-2 {
        fill: #542fc2;
      }
    </style>
  </defs>
  <path class="cls-1" d="M1347.9,466.7c-4.7-5.7-13.2-6.4-18.8-1.6-5.7,4.8-6.4,13.2-1.6,18.8,105.3,125.3,96.9,314.3-18.9,430.1-122.6,122.7-328,122.7-450.7,0-122.6-122.6-122.7-328.1,0-450.8,115.9-115.9,304.8-124.2,430.1-18.9,5.7,4.8,14.1,4,18.8-1.6,4.8-5.7,4-14-1.6-18.8-136.5-116.7-341.3-104.4-466.2,20.5-124.9,124.9-134,322.4-27.3,457.9l-22.9,23-10.1-10.1c-5.2-5.2-13.7-5.2-18.9,0l-223.2,223.2c-26.8,26.8-26.8,70.5,0,97.3,26.5,26.5,70.8,26.5,97.3,0l59.1-59.2c5.2-5.2,5.2-13.7,0-18.9-5.2-5.2-13.7-5.2-18.9,0l-59.1,59.2c-16.4,16.4-43,16.4-59.4,0-16.4-16.4-16.4-43,0-59.4l135.4-135.4,59.4,59.4-35.1,35.1c-5.2,5.2-5.2,13.7,0,18.9,5.2,5.2,13.7,5.2,18.9,0l122.9-122.9c5.2-5.2,5.2-13.7,0-18.9l-10.1-10.1,22.9-22.9c135.4,106.6,336,94.5,457.8-27.3,61.5-61.5,97.3-143.3,100.9-230.1,3.5-86.4-25-170.2-80.4-236.1h0ZM709.6,1002.8l20.3-20.3,59.4,59.4-20.3,20.3-59.4-59.4ZM808.1,1023.1l-59.4-59.4,20.3-20.3c19.8,19.8,39.6,39.6,59.4,59.4l-20.3,20.3ZM827.7,964.3l-20.2-20.3,21.4-21.4c6.5,7,13.2,13.8,20.3,20.3l-21.4,21.4Z"/>
  <path class="cls-1" d="M1287.6,875.3c5.7,4.7,14.1,4,18.8-1.7,94.6-113.3,86.3-286-17.8-390.2-111.5-111.5-298.1-111.5-409.6,0-111.3,111.4-111.4,298.3,0,409.7,102,102.1,270.1,112.5,383.6,23.1,5.8-4.6,6.8-13,2.2-18.8-4.6-5.8-13-6.8-18.8-2.2-103,81.2-255.6,71.7-348.2-21-101-101.1-101.1-270.7,0-371.8,101.2-101.2,270.6-101.2,371.8,0,94.6,94.6,102.1,251.2,16.2,354.1-4.7,5.7-4,14.1,1.7,18.8Z"/>
  <path class="cls-2" d="M1176,733.5h49.6c7.4,0,13.4-6,13.4-13.4s-6-13.4-13.4-13.4h-49.6c.3-12.5-1.9-25-6.6-36.6h15.9c24.7,0,44.9-20.1,44.9-44.9s-6-13.4-13.4-13.4-13.4,6-13.4,13.4-8.1,18.1-18.1,18.1h-32.4c-6.8-7.7-14.8-14.2-23.8-19.3,18.9-13.9,31.1-36.3,31.1-61.5v-.7c0-7.4-6-13.4-13.4-13.4s-13.4,6-13.4,13.4v.7c0,27.4-22.3,49.6-49.6,49.6s-49.6-22.3-49.6-49.6v-.7c0-7.4-6-13.4-13.4-13.4s-13.4,6-13.4,13.4v.7c0,25.2,12.3,47.6,31.1,61.5-9,5.1-17,11.6-23.8,19.3h-32.4c-10,0-18.1-8.1-18.1-18.1s-6-13.4-13.4-13.4-13.4,6-13.4,13.4c0,24.7,20.1,44.9,44.9,44.9h15.9c-4.7,11.6-6.9,24.1-6.6,36.6h-49.6c-7.4,0-13.4,6-13.4,13.4s6,13.4,13.4,13.4h49.6c-.1,12.3,2,24.4,6.5,36.3h-15.8c-24.7,0-44.9,20.1-44.9,44.9s6,13.4,13.4,13.4,13.4-6,13.4-13.4,8.1-18.1,18.1-18.1h32.1c16.9,19.3,41.7,31.5,69.3,31.5s52.4-12.2,69.3-31.5h32.1c10,0,18.1,8.1,18.1,18.1s6,13.4,13.4,13.4,13.4-6,13.4-13.4c0-24.7-20.1-44.9-44.9-44.9h-15.8c4.4-11.9,6.6-24,6.4-36.3h0ZM1083.9,639c25.5,0,47.7,14.7,58.5,36.1h-116.9c10.8-21.4,32.9-36.1,58.5-36.1ZM1018.5,735.9s0-33.2,0-34h52v98c-29.7-6.2-52-32.5-52-64h0ZM1097.3,799.9v-98h52c0,.8,0,34,0,34,0,31.5-22.3,57.8-52,64h0Z"/>
</svg>